# Alias OBJ Model File
# Exported from SketchUp, (c) 2000-2012 Trimble Navigation Limited
# File units = millimeters

mtllib nes_controller_red.mtl

g Mesh1 btnA Group1 Model

usemtl M_0023_FireBrick
v 11.1313 0 -19.8994
vt -0.295753 0.628815
vn 0 -1 -0
v 13.2144 0 -19.7499
vt -0.377763 0.62293
v 15.1878 0 -19.0664
vt -0.455456 0.59602
v 16.917 0 -17.8954
vt -0.523537 0.549918
v 18.2842 0 -16.3168
vt -0.577365 0.487767
v 19.1963 0 -14.4381
vt -0.613274 0.413801
v 19.5911 0 -12.3873
vt -0.628815 0.333062
v 19.4416 0 -10.3042
vt -0.62293 0.251052
v 18.7581 0 -8.33084
vt -0.59602 0.173359
v 17.5871 0 -6.60159
vt -0.549918 0.105279
v 16.0084 0 -5.23434
vt -0.487767 0.0514499
v 14.1297 0 -4.32226
vt -0.413801 0.0155413
v 12.0789 0 -3.92751
vt -0.333062 0
v 9.99588 0 -4.07699
vt -0.251052 0.00588503
v 8.02249 0 -4.76051
vt -0.173359 0.0327954
v 6.29324 0 -5.9315
vt -0.105279 0.0788971
v 4.92599 0 -7.51015
vt -0.0514499 0.141049
v 4.01391 0 -9.38887
vt -0.0155413 0.215014
v 3.61916 0 -11.4396
vt 0 0.295753
v 3.76864 0 -13.5227
vt -0.00588503 0.377763
v 4.45216 0 -15.4961
vt -0.0327954 0.455456
v 5.62315 0 -17.2253
vt -0.0788971 0.523537
v 7.20179 0 -18.5926
vt -0.141049 0.577365
v 9.08052 0 -19.5047
vt -0.215014 0.613274
f 1/1/1 2/2/1 3/3/1 4/4/1 5/5/1 6/6/1 7/7/1 8/8/1 9/9/1 10/10/1 11/11/1 12/12/1 13/13/1 14/14/1 15/15/1 16/16/1 17/17/1 18/18/1 19/19/1 20/20/1 21/21/1 22/22/1 23/23/1 24/24/1 

vt -0.332208 0
vn 0.201155 0 -0.97956
vt -0.249987 0
vn -0.0592283 0 -0.998244
v 11.1313 1 -19.8994
vt -0.249987 0.0393701
v 13.2144 1 -19.7499
vt -0.332208 0.0393701
f 2/25/2 1/26/3 25/27/3 26/28/2 

vt -0.40928 0
vt -0.327058 0
vn -0.315575 0 -0.948901
v 9.08052 1 -19.5047
vt -0.327058 0.0393701
vt -0.40928 0.0393701
f 1/29/3 24/30/4 27/31/4 25/32/3 

vt -0.461261 0
vt -0.37904 0
vn -0.550415 0 -0.834891
v 7.20179 1 -18.5926
vt -0.37904 0.0393701
vt -0.461261 0.0393701
f 24/33/4 23/34/5 28/35/5 27/36/4 

vt -0.48461 0
vt -0.402389 0
vn -0.747746 0 -0.663985
v 5.62315 1 -17.2253
vt -0.402389 0.0393701
vt -0.48461 0.0393701
f 23/37/5 22/38/6 29/39/6 28/40/5 

vt -0.477735 0
vt -0.395514 0
vn -0.894119 0 -0.447829
v 4.45216 1 -15.4961
vt -0.395514 0.0393701
vt -0.477735 0.0393701
f 22/41/6 21/42/7 30/43/7 29/44/6 

vt -0.441105 0
vt -0.358884 0
vn -0.97956 0 -0.201155
v 3.76864 1 -13.5227
vt -0.358884 0.0393701
vt -0.441105 0.0393701
f 21/45/7 20/46/8 31/47/8 30/48/7 

vt -0.377216 0
vt -0.294995 0
vn -0.998244 0 0.0592283
v 3.61916 1 -11.4396
vt -0.294995 0.0393701
vt -0.377216 0.0393701
f 20/49/8 19/50/9 32/51/9 31/52/8 

vt -0.290422 0
vt -0.208201 0
vn -0.948901 0 0.315575
v 4.01391 1 -9.38887
vt -0.208201 0.0393701
vt -0.290422 0.0393701
f 19/53/9 18/54/10 33/55/10 32/56/9 

vt -0.186638 0
vt -0.104416 0
vn -0.834891 0 0.550415
v 4.92599 1 -7.51015
vt -0.104416 0.0393701
vt -0.186638 0.0393701
f 18/57/10 17/58/11 34/59/11 33/60/10 

vt -0.0729359 0
vt 0.0092853 0
vn -0.663985 0 0.747746
v 6.29324 1 -5.9315
vt 0.0092853 0.0393701
vt -0.0729359 0.0393701
f 17/61/11 16/62/12 35/63/12 34/64/11 

vt 0.0429345 0
vt 0.125156 0
vn -0.447829 0 0.894119
v 8.02249 1 -4.76051
vt 0.125156 0.0393701
vt 0.0429345 0.0393701
f 16/65/12 15/66/13 36/67/13 35/68/12 

vt 0.153077 0
vt 0.235299 0
vn -0.201155 0 0.97956
v 9.99588 1 -4.07699
vt 0.235299 0.0393701
vt 0.153077 0.0393701
f 15/69/13 14/70/14 37/71/14 36/72/13 

vt 0.249987 0
vt 0.332208 0
vn 0.0592283 0 0.998244
v 12.0789 1 -3.92751
vt 0.332208 0.0393701
vt 0.249987 0.0393701
f 14/73/14 13/74/15 38/75/15 37/76/14 

vt 0.327058 0
vt 0.40928 0
vn 0.315575 0 0.948901
v 14.1297 1 -4.32226
vt 0.40928 0.0393701
vt 0.327058 0.0393701
f 13/77/15 12/78/16 39/79/16 38/80/15 

vt 0.37904 0
vt 0.461261 0
vn 0.550415 0 0.834891
v 16.0084 1 -5.23434
vt 0.461261 0.0393701
vt 0.37904 0.0393701
f 12/81/16 11/82/17 40/83/17 39/84/16 

vt 0.402389 0
vt 0.48461 0
vn 0.747746 0 0.663985
v 17.5871 1 -6.60159
vt 0.48461 0.0393701
vt 0.402389 0.0393701
f 11/85/17 10/86/18 41/87/18 40/88/17 

vt 0.395514 0
vt 0.477735 0
vn 0.894119 0 0.447829
v 18.7581 1 -8.33084
vt 0.477735 0.0393701
vt 0.395514 0.0393701
f 10/89/18 9/90/19 42/91/19 41/92/18 

vt 0.358884 0
vt 0.441105 0
vn 0.97956 0 0.201155
v 19.4416 1 -10.3042
vt 0.441105 0.0393701
vt 0.358884 0.0393701
f 9/93/19 8/94/20 43/95/20 42/96/19 

vt 0.294995 0
vt 0.377216 0
vn 0.998244 0 -0.0592283
v 19.5911 1 -12.3873
vt 0.377216 0.0393701
vt 0.294995 0.0393701
f 8/97/20 7/98/21 44/99/21 43/100/20 

vt 0.208201 0
vt 0.290422 0
vn 0.948901 0 -0.315575
v 19.1963 1 -14.4381
vt 0.290422 0.0393701
vt 0.208201 0.0393701
f 7/101/21 6/102/22 45/103/22 44/104/21 

vt 0.104416 0
vt 0.186638 0
vn 0.834891 0 -0.550415
v 18.2842 1 -16.3168
vt 0.186638 0.0393701
vt 0.104416 0.0393701
f 6/105/22 5/106/23 46/107/23 45/108/22 

vt -0.0092853 0
vt 0.0729359 0
vn 0.663985 0 -0.747746
v 16.917 1 -17.8954
vt 0.0729359 0.0393701
vt -0.0092853 0.0393701
f 5/109/23 4/110/24 47/111/24 46/112/23 

vt -0.125156 0
vt -0.0429345 0
vn 0.447829 0 -0.894119
v 15.1878 1 -19.0664
vt -0.0429345 0.0393701
vt -0.125156 0.0393701
f 4/113/24 3/114/25 48/115/25 47/116/24 

vt -0.235299 0
vt -0.153077 0
vt -0.153077 0.0393701
vt -0.235299 0.0393701
f 3/117/25 2/118/2 26/119/2 48/120/25 

vt 0.377763 0.62293
vn 0 1 -0
v 14.0682 1 -16.8311
vt 0.411379 0.508016
vt 0.455456 0.59602
f 26/121/26 49/122/26 48/123/26

v 12.7115 1 -17.301
vt 0.357965 0.526517
f 26/121/26 50/124/26 49/122/26

v 11.2794 1 -17.4038
vt 0.301583 0.530563
f 26/121/26 51/125/26 50/124/26

vt 0.295753 0.628815
f 25/126/26 51/125/26 26/121/26

v 9.86946 1 -17.1324
vt 0.246075 0.519878
f 25/126/26 52/127/26 51/125/26

vt 0.215014 0.613274
f 27/128/26 52/127/26 25/126/26

v 8.57783 1 -16.5054
vt 0.195223 0.495191
f 27/128/26 53/129/26 52/127/26

v 7.49251 1 -15.5654
vt 0.152494 0.458184
f 27/128/26 54/130/26 53/129/26

vt 0.141049 0.577365
f 28/131/26 54/130/26 27/128/26

v 6.68746 1 -14.3765
vt 0.120799 0.411379
f 28/131/26 55/132/26 54/130/26

v 6.21754 1 -13.0198
vt 0.102298 0.357965
f 28/131/26 56/133/26 55/132/26

vt 0.0788971 0.523537
f 29/134/26 56/133/26 28/131/26

v 6.11477 1 -11.5877
vt 0.0982524 0.301583
f 56/133/26 29/134/26 57/135/26

vt 0.105279 0.0788971
f 29/134/26 35/136/26 57/135/26

vt 0.0514499 0.141049
f 29/134/26 34/137/26 35/136/26

vt 0.0327954 0.455456
f 30/138/26 34/137/26 29/134/26

vt 0.0155413 0.215014
f 30/138/26 33/139/26 34/137/26

vt 0.00588503 0.377763
f 31/140/26 33/139/26 30/138/26

f 33/139/26 31/140/26 32/19/26

v 6.38616 1 -10.1778
vt 0.108937 0.246075
f 57/135/26 35/136/26 58/141/26

vt 0.173359 0.0327954
f 58/141/26 35/136/26 36/142/26

v 7.01322 1 -8.88618
vt 0.133624 0.195223
f 58/141/26 36/142/26 59/143/26

v 7.9532 1 -7.80086
vt 0.170631 0.152494
f 59/143/26 36/142/26 60/144/26

v 9.14206 1 -6.99581
vt 0.217437 0.120799
f 60/144/26 36/142/26 61/145/26

vt 0.251052 0.00588503
f 61/145/26 36/142/26 37/146/26

v 10.4988 1 -6.52589
vt 0.270851 0.102298
f 61/145/26 37/146/26 62/147/26

vt 0.333062 0
f 62/147/26 37/146/26 38/148/26

v 11.9309 1 -6.42312
vt 0.327233 0.0982524
f 62/147/26 38/148/26 63/149/26

v 13.3408 1 -6.69451
vt 0.382741 0.108937
f 63/149/26 38/148/26 64/150/26

vt 0.413801 0.0155413
f 64/150/26 38/148/26 39/151/26

v 14.6324 1 -7.32157
vt 0.433592 0.133624
f 64/150/26 39/151/26 65/152/26

vt 0.487767 0.0514499
f 65/152/26 39/151/26 40/153/26

v 15.7177 1 -8.26155
vt 0.476321 0.170631
f 65/152/26 40/153/26 66/154/26

v 16.5228 1 -9.45041
vt 0.508016 0.217437
f 66/154/26 40/153/26 67/155/26

vt 0.549918 0.105279
f 67/155/26 40/153/26 41/156/26

v 16.9927 1 -10.8071
vt 0.526517 0.270851
f 67/155/26 41/156/26 68/157/26

v 17.0955 1 -12.2392
vt 0.530563 0.327233
f 68/157/26 41/156/26 69/158/26

vt 0.577365 0.487767
f 46/159/26 69/158/26 41/156/26

vt 0.523537 0.549918
f 47/160/26 69/158/26 46/159/26

v 16.8241 1 -13.6491
vt 0.519878 0.382741
f 47/160/26 70/161/26 69/158/26

v 16.197 1 -14.9408
vt 0.495191 0.433592
f 47/160/26 71/162/26 70/161/26

v 15.257 1 -16.0261
vt 0.458184 0.476321
f 47/160/26 72/163/26 71/162/26

f 48/123/26 72/163/26 47/160/26

f 48/123/26 49/122/26 72/163/26

vt -0.112309 0.0393701
vt -0.0557816 0.0393701
v 14.0682 7 -16.8311
vt -0.0557816 0.275591
v 15.257 7 -16.0261
vt -0.112309 0.275591
f 72/164/24 49/165/25 73/166/25 74/167/24 

vt -0.222452 0.0393701
vt -0.165925 0.0393701
v 12.7115 7 -17.301
vt -0.165925 0.275591
vt -0.222452 0.275591
f 49/168/25 50/169/2 75/170/2 73/171/25 

vt -0.319361 0.0393701
vt -0.262834 0.0393701
v 11.2794 7 -17.4038
vt -0.262834 0.275591
vt -0.319361 0.275591
f 50/172/2 51/173/3 76/174/3 75/175/2 

vt -0.396432 0.0393701
vt -0.339905 0.0393701
v 9.86946 7 -17.1324
vt -0.339905 0.275591
vt -0.396432 0.275591
f 51/176/3 52/177/4 77/178/4 76/179/3 

vt -0.448414 0.0393701
vt -0.391887 0.0393701
v 8.57783 7 -16.5054
vt -0.391887 0.275591
vt -0.448414 0.275591
f 52/180/4 53/181/5 78/182/5 77/183/4 

vt -0.471763 0.0393701
vt -0.415236 0.0393701
v 7.49251 7 -15.5654
vt -0.415236 0.275591
vt -0.471763 0.275591
f 53/184/5 54/185/6 79/186/6 78/187/5 

vt -0.464888 0.0393701
vt -0.408361 0.0393701
v 6.68746 7 -14.3765
vt -0.408361 0.275591
vt -0.464888 0.275591
f 54/188/6 55/189/7 80/190/7 79/191/6 

vt -0.428258 0.0393701
vt -0.371731 0.0393701
v 6.21754 7 -13.0198
vt -0.371731 0.275591
vt -0.428258 0.275591
f 55/192/7 56/193/8 81/194/8 80/195/7 

vt -0.364369 0.0393701
vt -0.307842 0.0393701
v 6.11477 7 -11.5877
vt -0.307842 0.275591
vt -0.364369 0.275591
f 56/196/8 57/197/9 82/198/9 81/199/8 

vt -0.277575 0.0393701
vt -0.221048 0.0393701
v 6.38616 7 -10.1778
vt -0.221048 0.275591
vt -0.277575 0.275591
f 57/200/9 58/201/10 83/202/10 82/203/9 

vt -0.17379 0.0393701
vt -0.117263 0.0393701
v 7.01322 7 -8.88618
vt -0.117263 0.275591
vt -0.17379 0.275591
f 58/204/10 59/205/11 84/206/11 83/207/10 

vt -0.0600889 0.0393701
vt -0.00356176 0.0393701
v 7.9532 7 -7.80086
vt -0.00356176 0.275591
vt -0.0600889 0.275591
f 59/208/11 60/209/12 85/210/12 84/211/11 

vt 0.0557816 0.0393701
vt 0.112309 0.0393701
v 9.14206 7 -6.99581
vt 0.112309 0.275591
vt 0.0557816 0.275591
f 60/212/12 61/213/13 86/214/13 85/215/12 

vt 0.165925 0.0393701
vt 0.222452 0.0393701
v 10.4988 7 -6.52589
vt 0.222452 0.275591
vt 0.165925 0.275591
f 61/216/13 62/217/14 87/218/14 86/219/13 

vt 0.262834 0.0393701
vt 0.319361 0.0393701
v 11.9309 7 -6.42312
vt 0.319361 0.275591
vt 0.262834 0.275591
f 62/220/14 63/221/15 88/222/15 87/223/14 

vt 0.339905 0.0393701
vt 0.396432 0.0393701
v 13.3408 7 -6.69451
vt 0.396432 0.275591
vt 0.339905 0.275591
f 63/224/15 64/225/16 89/226/16 88/227/15 

vt 0.391887 0.0393701
vt 0.448414 0.0393701
v 14.6324 7 -7.32157
vt 0.448414 0.275591
vt 0.391887 0.275591
f 64/228/16 65/229/17 90/230/17 89/231/16 

vt 0.415236 0.0393701
vt 0.471763 0.0393701
v 15.7177 7 -8.26155
vt 0.471763 0.275591
vt 0.415236 0.275591
f 65/232/17 66/233/18 91/234/18 90/235/17 

vt 0.408361 0.0393701
vt 0.464888 0.0393701
v 16.5228 7 -9.45041
vt 0.464888 0.275591
vt 0.408361 0.275591
f 66/236/18 67/237/19 92/238/19 91/239/18 

vt 0.371731 0.0393701
vt 0.428258 0.0393701
v 16.9927 7 -10.8071
vt 0.428258 0.275591
vt 0.371731 0.275591
f 67/240/19 68/241/20 93/242/20 92/243/19 

vt 0.307842 0.0393701
vt 0.364369 0.0393701
v 17.0955 7 -12.2392
vt 0.364369 0.275591
vt 0.307842 0.275591
f 68/244/20 69/245/21 94/246/21 93/247/20 

vt 0.221048 0.0393701
vt 0.277575 0.0393701
v 16.8241 7 -13.6491
vt 0.277575 0.275591
vt 0.221048 0.275591
f 69/248/21 70/249/22 95/250/22 94/251/21 

vt 0.117263 0.0393701
vt 0.17379 0.0393701
v 16.197 7 -14.9408
vt 0.17379 0.275591
vt 0.117263 0.275591
f 70/252/22 71/253/23 96/254/23 95/255/22 

vt 0.00356176 0.0393701
vt 0.0600889 0.0393701
vt 0.0600889 0.275591
vt 0.00356176 0.275591
f 71/256/23 72/257/24 74/258/24 96/259/23 

vn 2.19069e-32 1 -2.02625e-48
f 88/149/27 89/150/27 90/152/27 91/154/27 92/155/27 93/157/27 94/158/27 95/161/27 96/162/27 74/163/27 73/122/27 75/124/27 76/125/27 77/127/27 78/129/27 79/130/27 80/132/27 81/133/27 82/135/27 83/141/27 84/143/27 85/144/27 86/145/27 87/147/27 

vt 0.59602 0.173359
f 46/159/26 41/156/26 42/260/26

vt 0.613274 0.413801
f 46/159/26 42/260/26 45/261/26

vt 0.62293 0.251052
f 45/261/26 42/260/26 43/262/26

vt 0.628815 0.333062
f 45/261/26 43/262/26 44/263/26

g Mesh2 btnA1 Group1 Model

v 37.3338 1.97762 -19.9855
vt -0.537671 0.537671
v 38.6051 1.97762 -18.3286
vt -0.587725 0.472441
v 39.4043 1.97762 -16.3992
vt -0.619189 0.396478
v 39.6769 1.97762 -14.3286
vt -0.629921 0.314961
v 39.4043 1.97762 -12.2581
vt -0.619189 0.233443
v 38.6051 1.97762 -10.3286
vt -0.587725 0.15748
v 37.3338 1.97762 -8.67175
vt -0.537671 0.0922498
v 35.6769 1.97762 -7.4004
vt -0.472441 0.0421967
v 33.7475 1.97762 -6.6012
vt -0.396478 0.010732
v 31.6769 1.97762 -6.3286
vt -0.314961 0
v 29.6064 1.97762 -6.6012
vt -0.233443 0.010732
v 27.6769 1.97762 -7.4004
vt -0.15748 0.0421967
v 26.0201 1.97762 -8.67175
vt -0.0922498 0.0922498
v 24.7487 1.97762 -10.3286
vt -0.0421967 0.15748
v 23.9495 1.97762 -12.2581
vt -0.010732 0.233443
v 23.6769 1.97762 -14.3286
vt 0 0.314961
v 23.9495 1.97762 -16.3992
vt -0.010732 0.396478
v 24.7487 1.97762 -18.3286
vt -0.0421967 0.472441
v 26.0201 1.97762 -19.9855
vt -0.0922498 0.537671
v 27.6769 1.97762 -21.2568
vt -0.15748 0.587725
v 29.6064 1.97762 -22.056
vt -0.233443 0.619189
v 31.6769 1.97762 -22.3286
vt -0.314961 0.629921
v 33.7475 1.97762 -22.056
vt -0.396478 0.619189
v 35.6769 1.97762 -21.2568
vt -0.472441 0.587725
f 97/264/1 98/265/1 99/266/1 100/267/1 101/268/1 102/269/1 103/270/1 104/271/1 105/272/1 106/273/1 107/274/1 108/275/1 109/276/1 110/277/1 111/278/1 112/279/1 113/280/1 114/281/1 115/282/1 116/283/1 117/284/1 118/285/1 119/286/1 120/287/1 

vt 0.0170286 0
vn 0.866025 0 -0.5
vt 0.0992498 0
vn 0.707107 0 -0.707107
v 37.3338 2.97762 -19.9855
vt 0.0992498 0.0393701
v 38.6051 2.97762 -18.3286
vt 0.0170286 0.0393701
f 98/288/28 97/289/29 121/290/29 122/291/28 

vt -0.0992498 0
vt -0.0170286 0
vn 0.5 0 -0.866025
v 35.6769 2.97762 -21.2568
vt -0.0170286 0.0393701
vt -0.0992498 0.0393701
f 97/292/29 120/293/30 123/294/30 121/295/29 

vt -0.211566 0
vt -0.129345 0
vn 0.258819 0 -0.965926
v 33.7475 2.97762 -22.056
vt -0.129345 0.0393701
vt -0.211566 0.0393701
f 120/296/30 119/297/31 124/298/31 123/299/30 

vt -0.312266 0
vt -0.230045 0
vn -1.81968e-16 0 -1
v 31.6769 2.97762 -22.3286
vt -0.230045 0.0393701
vt -0.312266 0.0393701
f 119/300/31 118/301/32 125/302/32 124/303/31 

vt -0.394487 0
vn -0.258819 0 -0.965926
v 29.6064 2.97762 -22.056
vt -0.394487 0.0393701
f 118/304/32 117/300/33 126/303/33 125/305/32 

vt -0.452627 0
vt -0.370405 0
vn -0.5 0 -0.866025
v 27.6769 2.97762 -21.2568
vt -0.370405 0.0393701
vt -0.452627 0.0393701
f 117/306/33 116/307/34 127/308/34 126/309/33 

vt -0.482722 0
vt -0.4005 0
vn -0.707107 0 -0.707107
v 26.0201 2.97762 -19.9855
vt -0.4005 0.0393701
vt -0.482722 0.0393701
f 116/310/34 115/311/35 128/312/35 127/313/34 

vn -0.866025 0 -0.5
v 24.7487 2.97762 -18.3286
f 115/310/35 114/311/36 129/312/36 128/313/35 

vn -0.965926 0 -0.258819
v 23.9495 2.97762 -16.3992
f 114/306/36 113/307/37 130/308/37 129/309/36 

vn -1 0 4.19926e-17
v 23.6769 2.97762 -14.3286
f 113/304/37 112/300/38 131/303/38 130/305/37 

vn -0.965926 0 0.258819
v 23.9495 2.97762 -12.2581
f 112/300/38 111/301/39 132/302/39 131/303/38 

vn -0.866025 0 0.5
v 24.7487 2.97762 -10.3286
f 111/296/39 110/297/40 133/298/40 132/299/39 

vn -0.707107 0 0.707107
v 26.0201 2.97762 -8.67175
f 110/292/40 109/293/41 134/294/41 133/295/40 

vn -0.5 0 0.866025
v 27.6769 2.97762 -7.4004
f 109/288/41 108/289/42 135/290/42 134/291/41 

vt 0.129345 0
vt 0.211566 0
vn -0.258819 0 0.965926
v 29.6064 2.97762 -6.6012
vt 0.211566 0.0393701
vt 0.129345 0.0393701
f 108/314/42 107/315/43 136/316/43 135/317/42 

vt 0.230045 0
vt 0.312266 0
vn 2.23961e-16 0 1
v 31.6769 2.97762 -6.3286
vt 0.312266 0.0393701
vt 0.230045 0.0393701
f 107/318/43 106/319/44 137/320/44 136/321/43 

vt 0.394487 0
vn 0.258819 0 0.965926
v 33.7475 2.97762 -6.6012
vt 0.394487 0.0393701
f 106/319/44 105/322/45 138/323/45 137/320/44 

vt 0.370405 0
vt 0.452627 0
vn 0.5 0 0.866025
v 35.6769 2.97762 -7.4004
vt 0.452627 0.0393701
vt 0.370405 0.0393701
f 105/324/45 104/325/46 139/326/46 138/327/45 

vt 0.4005 0
vt 0.482722 0
vn 0.707107 0 0.707107
v 37.3338 2.97762 -8.67175
vt 0.482722 0.0393701
vt 0.4005 0.0393701
f 104/328/46 103/329/47 140/330/47 139/331/46 

vn 0.866025 0 0.5
v 38.6051 2.97762 -10.3286
f 103/328/47 102/329/48 141/330/48 140/331/47 

vn 0.965926 0 0.258819
v 39.4043 2.97762 -12.2581
f 102/324/48 101/325/49 142/326/49 141/327/48 

vn 1 0 -0
v 39.6769 2.97762 -14.3286
f 101/319/49 100/322/50 143/323/50 142/320/49 

vn 0.965926 0 -0.258819
v 39.4043 2.97762 -16.3992
f 100/318/50 99/319/51 144/320/51 143/321/50 

f 99/314/51 98/315/28 122/316/28 144/317/51 

vt 0.587725 0.472441
vt 0.619189 0.233443
vt 0.619189 0.396478
f 122/332/26 142/333/26 144/334/26

vt 0.587725 0.15748
f 122/332/26 141/335/26 142/333/26

vt 0.537671 0.537671
f 121/336/26 141/335/26 122/332/26

vt 0.537671 0.0922498
f 121/336/26 140/337/26 141/335/26

v 37.144 2.97762 -14.3286
vt 0.5302 0.314961
f 121/336/26 145/338/26 140/337/26

v 36.9577 2.97762 -15.7436
vt 0.522866 0.370669
f 121/336/26 146/339/26 145/338/26

v 36.4116 2.97762 -17.0621
vt 0.501364 0.42258
f 121/336/26 147/340/26 146/339/26

vt 0.472441 0.587725
f 123/341/26 147/340/26 121/336/26

v 35.5427 2.97762 -18.1944
vt 0.467158 0.467158
f 123/341/26 148/342/26 147/340/26

v 34.4105 2.97762 -19.0632
vt 0.42258 0.501364
f 123/341/26 149/343/26 148/342/26

vt 0.396478 0.619189
f 124/344/26 149/343/26 123/341/26

v 33.0919 2.97762 -19.6094
vt 0.370669 0.522866
f 124/344/26 150/345/26 149/343/26

v 31.6769 2.97762 -19.7957
vt 0.314961 0.5302
f 124/344/26 151/346/26 150/345/26

vt 0.314961 0.629921
f 125/347/26 151/346/26 124/344/26

v 30.2619 2.97762 -19.6094
vt 0.259253 0.522866
f 125/347/26 152/348/26 151/346/26

vt 0.233443 0.619189
f 126/349/26 152/348/26 125/347/26

v 28.9434 2.97762 -19.0632
vt 0.207341 0.501364
f 126/349/26 153/350/26 152/348/26

v 27.8111 2.97762 -18.1944
vt 0.162763 0.467158
f 126/349/26 154/351/26 153/350/26

vt 0.15748 0.587725
f 127/352/26 154/351/26 126/349/26

v 26.9423 2.97762 -17.0621
vt 0.128558 0.42258
f 127/352/26 155/353/26 154/351/26

v 26.3961 2.97762 -15.7436
vt 0.107055 0.370669
f 127/352/26 156/354/26 155/353/26

vt 0.0922498 0.537671
f 128/355/26 156/354/26 127/352/26

v 26.2098 2.97762 -14.3286
vt 0.0997209 0.314961
f 156/354/26 128/355/26 157/356/26

vt 0.0922498 0.0922498
f 128/355/26 134/357/26 157/356/26

vt 0.0421967 0.472441
f 129/358/26 134/357/26 128/355/26

vt 0.0421967 0.15748
f 129/358/26 133/359/26 134/357/26

vt 0.010732 0.396478
f 130/360/26 133/359/26 129/358/26

vt 0.010732 0.233443
f 130/360/26 132/361/26 133/359/26

f 132/361/26 130/360/26 131/279/26

v 26.3961 2.97762 -12.9136
vt 0.107055 0.259253
f 157/356/26 134/357/26 158/362/26

vt 0.15748 0.0421967
f 158/362/26 134/357/26 135/363/26

v 26.9423 2.97762 -11.5951
vt 0.128558 0.207341
f 158/362/26 135/363/26 159/364/26

v 27.8111 2.97762 -10.4628
vt 0.162763 0.162763
f 159/364/26 135/363/26 160/365/26

vt 0.233443 0.010732
f 160/365/26 135/363/26 136/366/26

v 28.9434 2.97762 -9.59397
vt 0.207341 0.128558
f 160/365/26 136/366/26 161/367/26

v 30.2619 2.97762 -9.0478
vt 0.259253 0.107055
f 161/367/26 136/366/26 162/368/26

vt 0.314961 0
f 162/368/26 136/366/26 137/369/26

v 31.6769 2.97762 -8.86151
vt 0.314961 0.0997209
f 162/368/26 137/369/26 163/370/26

v 33.0919 2.97762 -9.0478
vt 0.370669 0.107055
f 163/370/26 137/369/26 164/371/26

vt 0.396478 0.010732
f 164/371/26 137/369/26 138/372/26

v 34.4105 2.97762 -9.59397
vt 0.42258 0.128558
f 164/371/26 138/372/26 165/373/26

vt 0.472441 0.0421967
f 165/373/26 138/372/26 139/374/26

v 35.5427 2.97762 -10.4628
vt 0.467158 0.162763
f 165/373/26 139/374/26 166/375/26

v 36.4116 2.97762 -11.5951
vt 0.501364 0.207341
f 166/375/26 139/374/26 167/376/26

f 167/376/26 139/374/26 140/337/26

v 36.9577 2.97762 -12.9136
vt 0.522866 0.259253
f 167/376/26 140/337/26 168/377/26

f 168/377/26 140/337/26 145/338/26

vt 0.325282 0.0393701
vt 0.381471 0.0393701
vn 1 0 1.02182e-15
v 37.144 8.97762 -14.3286
vt 0.381471 0.275591
v 36.9577 8.97762 -12.9136
vt 0.325282 0.275591
f 168/378/49 145/379/52 169/380/52 170/381/49 

vt 0.243061 0.0393701
vt 0.29925 0.0393701
v 36.9577 8.97762 -15.7436
vt 0.29925 0.275591
vt 0.243061 0.275591
f 145/382/52 146/383/51 171/384/51 169/385/52 

vt 0.142361 0.0393701
vt 0.19855 0.0393701
v 36.4116 8.97762 -17.0621
vt 0.19855 0.275591
vt 0.142361 0.275591
f 146/386/51 147/387/28 172/388/28 171/389/51 

vt 0.0300448 0.0393701
vt 0.0862336 0.0393701
v 35.5427 8.97762 -18.1944
vt 0.0862336 0.275591
vt 0.0300448 0.275591
f 147/390/28 148/391/29 173/392/29 172/393/28 

vt -0.0862336 0.0393701
vt -0.0300448 0.0393701
v 34.4105 8.97762 -19.0632
vt -0.0300448 0.275591
vt -0.0862336 0.275591
f 148/394/29 149/395/30 174/396/30 173/397/29 

vt -0.19855 0.0393701
vt -0.142361 0.0393701
v 33.0919 8.97762 -19.6094
vt -0.142361 0.275591
vt -0.19855 0.275591
f 149/398/30 150/399/31 175/400/31 174/401/30 

vt -0.29925 0.0393701
vt -0.243061 0.0393701
vn 1.25978e-16 0 -1
v 31.6769 8.97762 -19.7957
vt -0.243061 0.275591
vt -0.29925 0.275591
f 150/402/31 151/403/53 176/404/53 175/405/31 

vt -0.381471 0.0393701
vt -0.325282 0.0393701
v 30.2619 8.97762 -19.6094
vt -0.325282 0.275591
vt -0.381471 0.275591
f 151/406/53 152/407/33 177/408/33 176/409/53 

vt -0.43961 0.0393701
vt -0.383421 0.0393701
v 28.9434 8.97762 -19.0632
vt -0.383421 0.275591
vt -0.43961 0.275591
f 152/410/33 153/411/34 178/412/34 177/413/33 

vt -0.469705 0.0393701
vt -0.413517 0.0393701
v 27.8111 8.97762 -18.1944
vt -0.413517 0.275591
vt -0.469705 0.275591
f 153/414/34 154/415/35 179/416/35 178/417/34 

v 26.9423 8.97762 -17.0621
f 154/414/35 155/415/36 180/416/36 179/417/35 

v 26.3961 8.97762 -15.7436
f 155/410/36 156/411/37 181/412/37 180/413/36 

vn -1 0 2.79951e-17
v 26.2098 8.97762 -14.3286
f 156/406/37 157/407/54 182/408/54 181/409/37 

v 26.3961 8.97762 -12.9136
f 157/402/54 158/403/39 183/404/39 182/405/54 

v 26.9423 8.97762 -11.5951
f 158/398/39 159/399/40 184/400/40 183/401/39 

v 27.8111 8.97762 -10.4628
f 159/394/40 160/395/41 185/396/41 184/397/40 

v 28.9434 8.97762 -9.59397
f 160/390/41 161/391/42 186/392/42 185/393/41 

v 30.2619 8.97762 -9.0478
f 161/386/42 162/387/43 187/388/43 186/389/42 

vn -1.25978e-16 0 1
v 31.6769 8.97762 -8.86151
f 162/382/43 163/383/55 188/384/55 187/385/43 

v 33.0919 8.97762 -9.0478
f 163/378/55 164/379/45 189/380/45 188/381/55 

vt 0.383421 0.0393701
vt 0.43961 0.0393701
v 34.4105 8.97762 -9.59397
vt 0.43961 0.275591
vt 0.383421 0.275591
f 164/418/45 165/419/46 190/420/46 189/421/45 

vt 0.413517 0.0393701
vt 0.469705 0.0393701
v 35.5427 8.97762 -10.4628
vt 0.469705 0.275591
vt 0.413517 0.275591
f 165/422/46 166/423/47 191/424/47 190/425/46 

v 36.4116 8.97762 -11.5951
f 166/422/47 167/423/48 192/424/48 191/425/47 

f 167/418/48 168/419/49 170/420/49 192/421/48 

f 187/368/26 188/370/26 189/371/26 190/373/26 191/375/26 192/376/26 170/377/26 169/338/26 171/339/26 172/340/26 173/342/26 174/343/26 175/345/26 176/346/26 177/348/26 178/350/26 179/351/26 180/353/26 181/354/26 182/356/26 183/362/26 184/364/26 185/365/26 186/367/26 

vt 0.629921 0.314961
f 144/334/26 142/333/26 143/426/26

