solid Untitled-5a5ef71b
facet normal 1.0 0.0 0.0
  outer loop
    vertex 52.49999999999999 60.0 14.000000000000005
    vertex 52.49999999999999 57.00000000000004 19.000000000000004
    vertex 52.49999999999999 57.00000000000004 14.000000000000005
  endloop
endfacet
facet normal 1.0 0.0 0.0
  outer loop
    vertex 52.49999999999999 57.00000000000004 19.000000000000004
    vertex 52.49999999999999 60.0 14.000000000000005
    vertex 52.49999999999999 58.00000000000001 19.000000000000004
  endloop
endfacet
facet normal 1.0 0.0 0.0
  outer loop
    vertex 52.49999999999999 58.00000000000001 19.000000000000004
    vertex 52.49999999999999 60.0 14.000000000000005
    vertex 52.49999999999999 60.0 19.000000000000004
  endloop
endfacet
facet normal 3.021241312866473e-34 -2.562652840516079e-17 1.0
  outer loop
    vertex 1.9999999999999978 2.0000000000000013 19.000000000000004
    vertex 2.999999999999996 3.0000000000000013 19.000000000000004
    vertex 1.9999999999999991 58.00000000000001 19.000000000000004
  endloop
endfacet
facet normal 3.021241312866473e-34 -2.562652840516079e-17 1.0
  outer loop
    vertex 2.999999999999996 3.0000000000000013 19.000000000000004
    vertex 1.9999999999999978 2.0000000000000013 19.000000000000004
    vertex 113.0 2.0000000000000013 19.000000000000004
  endloop
endfacet
facet normal 3.021241312866473e-34 -2.562652840516079e-17 1.0
  outer loop
    vertex 2.999999999999996 3.0000000000000013 19.000000000000004
    vertex 113.0 2.0000000000000013 19.000000000000004
    vertex 112.0 3.0000000000000013 19.000000000000004
  endloop
endfacet
facet normal 3.021241312866473e-34 -2.562652840516079e-17 1.0
  outer loop
    vertex 112.0 3.0000000000000013 19.000000000000004
    vertex 113.0 2.0000000000000013 19.000000000000004
    vertex 112.0 57.00000000000001 19.000000000000004
  endloop
endfacet
facet normal 3.021241312866473e-34 -2.562652840516079e-17 1.0
  outer loop
    vertex 112.0 57.00000000000001 19.000000000000004
    vertex 62.5 58.00000000000001 19.000000000000004
    vertex 62.5 57.00000000000004 19.000000000000004
  endloop
endfacet
facet normal 3.021241312866473e-34 -2.562652840516079e-17 1.0
  outer loop
    vertex 62.5 58.00000000000001 19.000000000000004
    vertex 112.0 57.00000000000001 19.000000000000004
    vertex 113.0 58.00000000000001 19.000000000000004
  endloop
endfacet
facet normal 3.021241312866473e-34 -2.562652840516079e-17 1.0
  outer loop
    vertex 113.0 58.00000000000001 19.000000000000004
    vertex 112.0 57.00000000000001 19.000000000000004
    vertex 113.0 2.0000000000000013 19.000000000000004
  endloop
endfacet
facet normal 3.021241312866473e-34 -2.562652840516079e-17 1.0
  outer loop
    vertex 1.9999999999999991 58.00000000000001 19.000000000000004
    vertex 2.9999999999999973 57.00000000000001 19.000000000000004
    vertex 52.49999999999999 58.00000000000001 19.000000000000004
  endloop
endfacet
facet normal 3.021241312866473e-34 -2.562652840516079e-17 1.0
  outer loop
    vertex 2.9999999999999973 57.00000000000001 19.000000000000004
    vertex 1.9999999999999991 58.00000000000001 19.000000000000004
    vertex 2.999999999999996 3.0000000000000013 19.000000000000004
  endloop
endfacet
facet normal 3.021241312866473e-34 -2.562652840516079e-17 1.0
  outer loop
    vertex 52.49999999999999 58.00000000000001 19.000000000000004
    vertex 2.9999999999999973 57.00000000000001 19.000000000000004
    vertex 52.49999999999999 57.00000000000004 19.000000000000004
  endloop
endfacet
facet normal 0.0 0.0 -1.0
  outer loop
    vertex 62.5 60.0 19.000000000000004
    vertex 52.49999999999999 58.00000000000001 19.000000000000004
    vertex 52.49999999999999 60.0 19.000000000000004
  endloop
endfacet
facet normal 0.0 0.0 -1.0
  outer loop
    vertex 52.49999999999999 58.00000000000001 19.000000000000004
    vertex 62.5 60.0 19.000000000000004
    vertex 62.5 58.00000000000001 19.000000000000004
  endloop
endfacet
facet normal -1.0 0.0 0.0
  outer loop
    vertex 62.5 58.00000000000001 19.000000000000004
    vertex 62.5 57.00000000000004 14.000000000000005
    vertex 62.5 57.00000000000004 19.000000000000004
  endloop
endfacet
facet normal -1.0 0.0 0.0
  outer loop
    vertex 62.5 57.00000000000004 14.000000000000005
    vertex 62.5 58.00000000000001 19.000000000000004
    vertex 62.5 60.0 14.000000000000005
  endloop
endfacet
facet normal -1.0 0.0 0.0
  outer loop
    vertex 62.5 60.0 14.000000000000005
    vertex 62.5 58.00000000000001 19.000000000000004
    vertex 62.5 60.0 19.000000000000004
  endloop
endfacet
facet normal 0.0 0.0 1.0
  outer loop
    vertex 62.5 57.00000000000004 14.000000000000005
    vertex 52.49999999999999 60.0 14.000000000000005
    vertex 52.49999999999999 57.00000000000004 14.000000000000005
  endloop
endfacet
facet normal 0.0 0.0 1.0
  outer loop
    vertex 52.49999999999999 60.0 14.000000000000005
    vertex 62.5 57.00000000000004 14.000000000000005
    vertex 62.5 60.0 14.000000000000005
  endloop
endfacet
facet normal 0.0 0.0 -1.0
  outer loop
    vertex 2.2912227670701667e-15 59.00000000000001 0.0
    vertex 0.03407417371093175 0.7411809548974791 0.0
    vertex 0.0 0.9999999999999998 0.0
  endloop
endfacet
facet normal 0.0 0.0 -1.0
  outer loop
    vertex 0.03407417371093175 0.7411809548974791 0.0
    vertex 2.2912227670701667e-15 59.00000000000001 0.0
    vertex 0.03407417371093405 59.25881904510253 0.0
  endloop
endfacet
facet normal 0.0 0.0 -1.0
  outer loop
    vertex 0.03407417371093175 0.7411809548974791 0.0
    vertex 0.03407417371093405 59.25881904510253 0.0
    vertex 0.1339745962155613 0.5000000000000001 0.0
  endloop
endfacet
facet normal 0.0 0.0 -1.0
  outer loop
    vertex 0.1339745962155613 0.5000000000000001 0.0
    vertex 0.03407417371093405 59.25881904510253 0.0
    vertex 0.1339745962155634 59.50000000000001 0.0
  endloop
endfacet
facet normal 0.0 0.0 -1.0
  outer loop
    vertex 0.1339745962155613 0.5000000000000001 0.0
    vertex 0.1339745962155634 59.50000000000001 0.0
    vertex 0.2928932188134531 0.29289321881345215 0.0
  endloop
endfacet
facet normal 0.0 0.0 -1.0
  outer loop
    vertex 0.2928932188134531 0.29289321881345215 0.0
    vertex 0.1339745962155634 59.50000000000001 0.0
    vertex 0.29289321881345415 59.70710678118655 0.0
  endloop
endfacet
facet normal 0.0 0.0 -1.0
  outer loop
    vertex 0.2928932188134531 0.29289321881345215 0.0
    vertex 0.29289321881345415 59.70710678118655 0.0
    vertex 0.5000000000000006 0.13397459621556113 0.0
  endloop
endfacet
facet normal 0.0 0.0 -1.0
  outer loop
    vertex 0.5000000000000006 0.13397459621556113 0.0
    vertex 0.29289321881345415 59.70710678118655 0.0
    vertex 0.5000000000000014 59.86602540378444 0.0
  endloop
endfacet
facet normal 0.0 0.0 -1.0
  outer loop
    vertex 0.5000000000000006 0.13397459621556113 0.0
    vertex 0.5000000000000014 59.86602540378444 0.0
    vertex 0.7411809548974796 0.03407417371093175 0.0
  endloop
endfacet
facet normal 0.0 0.0 -1.0
  outer loop
    vertex 0.7411809548974796 0.03407417371093175 0.0
    vertex 0.5000000000000014 59.86602540378444 0.0
    vertex 0.7411809548974801 59.96592582628908 0.0
  endloop
endfacet
facet normal 0.0 0.0 -1.0
  outer loop
    vertex 0.7411809548974796 0.03407417371093175 0.0
    vertex 0.7411809548974801 59.96592582628908 0.0
    vertex 1.0000000000000013 0.0 0.0
  endloop
endfacet
facet normal 0.0 0.0 -1.0
  outer loop
    vertex 1.0000000000000013 0.0 0.0
    vertex 0.7411809548974801 59.96592582628908 0.0
    vertex 1.0000000000000004 60.0 0.0
  endloop
endfacet
facet normal 0.0 0.0 -1.0
  outer loop
    vertex 1.0000000000000013 0.0 0.0
    vertex 1.0000000000000004 60.0 0.0
    vertex 114.0 60.0 0.0
  endloop
endfacet
facet normal 0.0 0.0 -1.0
  outer loop
    vertex 1.0000000000000013 0.0 0.0
    vertex 114.0 60.0 0.0
    vertex 114.0 0.0 0.0
  endloop
endfacet
facet normal 0.0 0.0 -1.0
  outer loop
    vertex 114.0 0.0 0.0
    vertex 114.0 60.0 0.0
    vertex 114.25881904510251 59.965925826289066 0.0
  endloop
endfacet
facet normal 0.0 0.0 -1.0
  outer loop
    vertex 114.0 0.0 0.0
    vertex 114.25881904510251 59.965925826289066 0.0
    vertex 114.25881904510251 0.03407417371093175 0.0
  endloop
endfacet
facet normal 0.0 0.0 -1.0
  outer loop
    vertex 114.25881904510251 0.03407417371093175 0.0
    vertex 114.25881904510251 59.965925826289066 0.0
    vertex 114.5 59.86602540378444 0.0
  endloop
endfacet
facet normal 0.0 0.0 -1.0
  outer loop
    vertex 114.25881904510251 0.03407417371093175 0.0
    vertex 114.5 59.86602540378444 0.0
    vertex 114.5 0.1339745962155613 0.0
  endloop
endfacet
facet normal 0.0 0.0 -1.0
  outer loop
    vertex 114.5 0.1339745962155613 0.0
    vertex 114.5 59.86602540378444 0.0
    vertex 114.70710678118654 59.70710678118655 0.0
  endloop
endfacet
facet normal 0.0 0.0 -1.0
  outer loop
    vertex 114.5 0.1339745962155613 0.0
    vertex 114.70710678118654 59.70710678118655 0.0
    vertex 114.70710678118654 0.2928932188134526 0.0
  endloop
endfacet
facet normal 0.0 0.0 -1.0
  outer loop
    vertex 114.70710678118654 0.2928932188134526 0.0
    vertex 114.70710678118654 59.70710678118655 0.0
    vertex 114.86602540378443 59.50000000000001 0.0
  endloop
endfacet
facet normal 0.0 0.0 -1.0
  outer loop
    vertex 114.70710678118654 0.2928932188134526 0.0
    vertex 114.86602540378443 59.50000000000001 0.0
    vertex 114.86602540378443 0.5000000000000001 0.0
  endloop
endfacet
facet normal 0.0 0.0 -1.0
  outer loop
    vertex 114.86602540378443 0.5000000000000001 0.0
    vertex 114.86602540378443 59.50000000000001 0.0
    vertex 114.96592582628905 59.25881904510253 0.0
  endloop
endfacet
facet normal 0.0 0.0 -1.0
  outer loop
    vertex 114.86602540378443 0.5000000000000001 0.0
    vertex 114.96592582628905 59.25881904510253 0.0
    vertex 114.96592582628905 0.7411809548974794 0.0
  endloop
endfacet
facet normal 0.0 0.0 -1.0
  outer loop
    vertex 114.96592582628905 0.7411809548974794 0.0
    vertex 114.96592582628905 59.25881904510253 0.0
    vertex 114.99999999999999 59.00000000000001 0.0
  endloop
endfacet
facet normal 0.0 0.0 -1.0
  outer loop
    vertex 114.96592582628905 0.7411809548974794 0.0
    vertex 114.99999999999999 59.00000000000001 0.0
    vertex 114.99999999999999 1.0000000000000004 0.0
  endloop
endfacet
facet normal -1.0 3.9503840811554597e-17 0.0
  outer loop
    vertex 2.2912227670701667e-15 59.00000000000001 26.000000000000004
    vertex 0.0 0.9999999999999998 0.0
    vertex 0.0 0.9999999999999998 26.000000000000004
  endloop
endfacet
facet normal -1.0 3.9503840811554597e-17 0.0
  outer loop
    vertex 0.0 0.9999999999999998 0.0
    vertex 2.2912227670701667e-15 59.00000000000001 26.000000000000004
    vertex 2.2912227670701667e-15 59.00000000000001 0.0
  endloop
endfacet
facet normal -0.9914448613738105 -0.13052619222005185 -0.0
  outer loop
    vertex 0.0 0.9999999999999998 26.000000000000004
    vertex 0.03407417371093175 0.7411809548974791 0.0
    vertex 0.03407417371093175 0.7411809548974791 26.000000000000004
  endloop
endfacet
facet normal -0.9914448613738105 -0.13052619222005185 -0.0
  outer loop
    vertex 0.03407417371093175 0.7411809548974791 0.0
    vertex 0.0 0.9999999999999998 26.000000000000004
    vertex 0.0 0.9999999999999998 0.0
  endloop
endfacet
facet normal -0.9914448613738106 0.13052619222005077 0.0
  outer loop
    vertex 0.03407417371093405 59.25881904510253 26.000000000000004
    vertex 2.2912227670701667e-15 59.00000000000001 0.0
    vertex 2.2912227670701667e-15 59.00000000000001 26.000000000000004
  endloop
endfacet
facet normal -0.9914448613738106 0.13052619222005077 0.0
  outer loop
    vertex 2.2912227670701667e-15 59.00000000000001 0.0
    vertex 0.03407417371093405 59.25881904510253 26.000000000000004
    vertex 0.03407417371093405 59.25881904510253 0.0
  endloop
endfacet
facet normal 0.0 1.0 0.0
  outer loop
    vertex 1.0000000000000004 60.0 0.0
    vertex 52.49999999999999 60.0 14.000000000000005
    vertex 114.0 60.0 0.0
  endloop
endfacet
facet normal 0.0 1.0 0.0
  outer loop
    vertex 52.49999999999999 60.0 14.000000000000005
    vertex 1.0000000000000004 60.0 0.0
    vertex 1.0000000000000004 60.0 26.000000000000004
  endloop
endfacet
facet normal 0.0 1.0 0.0
  outer loop
    vertex 52.49999999999999 60.0 14.000000000000005
    vertex 1.0000000000000004 60.0 26.000000000000004
    vertex 52.49999999999999 60.0 19.000000000000004
  endloop
endfacet
facet normal 0.0 1.0 0.0
  outer loop
    vertex 52.49999999999999 60.0 19.000000000000004
    vertex 1.0000000000000004 60.0 26.000000000000004
    vertex 62.5 60.0 19.000000000000004
  endloop
endfacet
facet normal 0.0 1.0 0.0
  outer loop
    vertex 114.0 60.0 0.0
    vertex 62.5 60.0 14.000000000000005
    vertex 114.0 60.0 26.000000000000004
  endloop
endfacet
facet normal 0.0 1.0 0.0
  outer loop
    vertex 62.5 60.0 14.000000000000005
    vertex 114.0 60.0 0.0
    vertex 52.49999999999999 60.0 14.000000000000005
  endloop
endfacet
facet normal 0.0 1.0 0.0
  outer loop
    vertex 114.0 60.0 26.000000000000004
    vertex 62.5 60.0 14.000000000000005
    vertex 62.5 60.0 19.000000000000004
  endloop
endfacet
facet normal 0.0 1.0 0.0
  outer loop
    vertex 114.0 60.0 26.000000000000004
    vertex 62.5 60.0 19.000000000000004
    vertex 1.0000000000000004 60.0 26.000000000000004
  endloop
endfacet
facet normal 0.9914448613738077 -0.13052619222007283 0.0
  outer loop
    vertex 114.99999999999999 1.0000000000000004 0.0
    vertex 114.96592582628905 0.7411809548974794 26.000000000000004
    vertex 114.96592582628905 0.7411809548974794 0.0
  endloop
endfacet
facet normal 0.9914448613738077 -0.13052619222007283 0.0
  outer loop
    vertex 114.96592582628905 0.7411809548974794 26.000000000000004
    vertex 114.99999999999999 1.0000000000000004 0.0
    vertex 114.99999999999999 1.0000000000000004 26.000000000000004
  endloop
endfacet
facet normal 0.6087614290086991 0.7933533402912518 0.0
  outer loop
    vertex 114.5 59.86602540378444 26.000000000000004
    vertex 114.70710678118654 59.70710678118655 0.0
    vertex 114.5 59.86602540378444 0.0
  endloop
endfacet
facet normal 0.6087614290086991 0.7933533402912518 0.0
  outer loop
    vertex 114.70710678118654 59.70710678118655 0.0
    vertex 114.5 59.86602540378444 26.000000000000004
    vertex 114.70710678118654 59.70710678118655 26.000000000000004
  endloop
endfacet
facet normal 0.793353340291248 -0.608761429008704 0.0
  outer loop
    vertex 114.86602540378443 0.5000000000000001 0.0
    vertex 114.70710678118654 0.2928932188134526 26.000000000000004
    vertex 114.70710678118654 0.2928932188134526 0.0
  endloop
endfacet
facet normal 0.793353340291248 -0.608761429008704 0.0
  outer loop
    vertex 114.70710678118654 0.2928932188134526 26.000000000000004
    vertex 114.86602540378443 0.5000000000000001 0.0
    vertex 114.86602540378443 0.5000000000000001 26.000000000000004
  endloop
endfacet
facet normal 0.13052619222005635 -0.9914448613738099 0.0
  outer loop
    vertex 114.25881904510251 0.03407417371093175 26.000000000000004
    vertex 114.0 0.0 0.0
    vertex 114.25881904510251 0.03407417371093175 0.0
  endloop
endfacet
facet normal 0.13052619222005635 -0.9914448613738099 0.0
  outer loop
    vertex 114.0 0.0 0.0
    vertex 114.25881904510251 0.03407417371093175 26.000000000000004
    vertex 114.0 0.0 26.000000000000004
  endloop
endfacet
facet normal -0.0 -1.0 -0.0
  outer loop
    vertex 114.0 0.0 26.000000000000004
    vertex 1.0000000000000013 0.0 0.0
    vertex 114.0 0.0 0.0
  endloop
endfacet
facet normal -0.0 -1.0 -0.0
  outer loop
    vertex 1.0000000000000013 0.0 0.0
    vertex 114.0 0.0 26.000000000000004
    vertex 1.0000000000000013 0.0 26.000000000000004
  endloop
endfacet
facet normal -0.1305261922200513 -0.9914448613738106 -0.0
  outer loop
    vertex 1.0000000000000013 0.0 26.000000000000004
    vertex 0.7411809548974796 0.03407417371093175 0.0
    vertex 1.0000000000000013 0.0 0.0
  endloop
endfacet
facet normal -0.1305261922200513 -0.9914448613738106 -0.0
  outer loop
    vertex 0.7411809548974796 0.03407417371093175 0.0
    vertex 1.0000000000000013 0.0 26.000000000000004
    vertex 0.7411809548974796 0.03407417371093175 26.000000000000004
  endloop
endfacet
facet normal -0.13052619222003073 0.9914448613738132 0.0
  outer loop
    vertex 0.7411809548974801 59.96592582628908 26.000000000000004
    vertex 1.0000000000000004 60.0 0.0
    vertex 0.7411809548974801 59.96592582628908 0.0
  endloop
endfacet
facet normal -0.13052619222003073 0.9914448613738132 0.0
  outer loop
    vertex 1.0000000000000004 60.0 0.0
    vertex 0.7411809548974801 59.96592582628908 26.000000000000004
    vertex 1.0000000000000004 60.0 26.000000000000004
  endloop
endfacet
facet normal -0.3826834323651196 0.9238795325112745 0.0
  outer loop
    vertex 0.5000000000000014 59.86602540378444 26.000000000000004
    vertex 0.7411809548974801 59.96592582628908 0.0
    vertex 0.5000000000000014 59.86602540378444 0.0
  endloop
endfacet
facet normal -0.3826834323651196 0.9238795325112745 0.0
  outer loop
    vertex 0.7411809548974801 59.96592582628908 0.0
    vertex 0.5000000000000014 59.86602540378444 26.000000000000004
    vertex 0.7411809548974801 59.96592582628908 26.000000000000004
  endloop
endfacet
facet normal -0.6087614290087044 0.7933533402912476 0.0
  outer loop
    vertex 0.29289321881345415 59.70710678118655 26.000000000000004
    vertex 0.5000000000000014 59.86602540378444 0.0
    vertex 0.29289321881345415 59.70710678118655 0.0
  endloop
endfacet
facet normal -0.6087614290087044 0.7933533402912476 0.0
  outer loop
    vertex 0.5000000000000014 59.86602540378444 0.0
    vertex 0.29289321881345415 59.70710678118655 26.000000000000004
    vertex 0.5000000000000014 59.86602540378444 26.000000000000004
  endloop
endfacet
facet normal -0.7933533402912397 0.6087614290087149 0.0
  outer loop
    vertex 0.29289321881345415 59.70710678118655 26.000000000000004
    vertex 0.1339745962155634 59.50000000000001 0.0
    vertex 0.1339745962155634 59.50000000000001 26.000000000000004
  endloop
endfacet
facet normal -0.7933533402912397 0.6087614290087149 0.0
  outer loop
    vertex 0.1339745962155634 59.50000000000001 0.0
    vertex 0.29289321881345415 59.70710678118655 26.000000000000004
    vertex 0.29289321881345415 59.70710678118655 0.0
  endloop
endfacet
facet normal 0.13052619222007758 0.991444861373807 0.0
  outer loop
    vertex 114.0 60.0 26.000000000000004
    vertex 114.25881904510251 59.965925826289066 0.0
    vertex 114.0 60.0 0.0
  endloop
endfacet
facet normal 0.13052619222007758 0.991444861373807 0.0
  outer loop
    vertex 114.25881904510251 59.965925826289066 0.0
    vertex 114.0 60.0 26.000000000000004
    vertex 114.25881904510251 59.965925826289066 26.000000000000004
  endloop
endfacet
facet normal 0.3826834323650781 -0.9238795325112916 0.0
  outer loop
    vertex 114.5 0.1339745962155613 26.000000000000004
    vertex 114.25881904510251 0.03407417371093175 0.0
    vertex 114.5 0.1339745962155613 0.0
  endloop
endfacet
facet normal 0.3826834323650781 -0.9238795325112916 0.0
  outer loop
    vertex 114.25881904510251 0.03407417371093175 0.0
    vertex 114.5 0.1339745962155613 26.000000000000004
    vertex 114.25881904510251 0.03407417371093175 26.000000000000004
  endloop
endfacet
facet normal 0.7933533402912518 0.6087614290086991 0.0
  outer loop
    vertex 114.70710678118654 59.70710678118655 0.0
    vertex 114.86602540378443 59.50000000000001 26.000000000000004
    vertex 114.86602540378443 59.50000000000001 0.0
  endloop
endfacet
facet normal 0.7933533402912518 0.6087614290086991 0.0
  outer loop
    vertex 114.86602540378443 59.50000000000001 26.000000000000004
    vertex 114.70710678118654 59.70710678118655 0.0
    vertex 114.70710678118654 59.70710678118655 26.000000000000004
  endloop
endfacet
facet normal 0.9238795325112884 0.38268343236508595 0.0
  outer loop
    vertex 114.86602540378443 59.50000000000001 0.0
    vertex 114.96592582628905 59.25881904510253 26.000000000000004
    vertex 114.96592582628905 59.25881904510253 0.0
  endloop
endfacet
facet normal 0.9238795325112884 0.38268343236508595 0.0
  outer loop
    vertex 114.96592582628905 59.25881904510253 26.000000000000004
    vertex 114.86602540378443 59.50000000000001 0.0
    vertex 114.86602540378443 59.50000000000001 26.000000000000004
  endloop
endfacet
facet normal -0.9238795325112855 0.38268343236509283 0.0
  outer loop
    vertex 0.1339745962155634 59.50000000000001 26.000000000000004
    vertex 0.03407417371093405 59.25881904510253 0.0
    vertex 0.03407417371093405 59.25881904510253 26.000000000000004
  endloop
endfacet
facet normal -0.9238795325112855 0.38268343236509283 0.0
  outer loop
    vertex 0.03407417371093405 59.25881904510253 0.0
    vertex 0.1339745962155634 59.50000000000001 26.000000000000004
    vertex 0.1339745962155634 59.50000000000001 0.0
  endloop
endfacet
facet normal 0.9914448613738077 0.13052619222007197 0.0
  outer loop
    vertex 114.96592582628905 59.25881904510253 0.0
    vertex 114.99999999999999 59.00000000000001 26.000000000000004
    vertex 114.99999999999999 59.00000000000001 0.0
  endloop
endfacet
facet normal 0.9914448613738077 0.13052619222007197 0.0
  outer loop
    vertex 114.99999999999999 59.00000000000001 26.000000000000004
    vertex 114.96592582628905 59.25881904510253 0.0
    vertex 114.96592582628905 59.25881904510253 26.000000000000004
  endloop
endfacet
facet normal 1.0 0.0 0.0
  outer loop
    vertex 114.99999999999999 59.00000000000001 0.0
    vertex 114.99999999999999 1.0000000000000004 26.000000000000004
    vertex 114.99999999999999 1.0000000000000004 0.0
  endloop
endfacet
facet normal 1.0 0.0 0.0
  outer loop
    vertex 114.99999999999999 1.0000000000000004 26.000000000000004
    vertex 114.99999999999999 59.00000000000001 0.0
    vertex 114.99999999999999 59.00000000000001 26.000000000000004
  endloop
endfacet
facet normal 0.6087614290087162 -0.7933533402912388 0.0
  outer loop
    vertex 114.70710678118654 0.2928932188134526 26.000000000000004
    vertex 114.5 0.1339745962155613 0.0
    vertex 114.70710678118654 0.2928932188134526 0.0
  endloop
endfacet
facet normal 0.6087614290087162 -0.7933533402912388 0.0
  outer loop
    vertex 114.5 0.1339745962155613 0.0
    vertex 114.70710678118654 0.2928932188134526 26.000000000000004
    vertex 114.5 0.1339745962155613 26.000000000000004
  endloop
endfacet
facet normal 0.92387953251129 -0.38268343236508195 0.0
  outer loop
    vertex 114.96592582628905 0.7411809548974794 0.0
    vertex 114.86602540378443 0.5000000000000001 26.000000000000004
    vertex 114.86602540378443 0.5000000000000001 0.0
  endloop
endfacet
facet normal 0.92387953251129 -0.38268343236508195 0.0
  outer loop
    vertex 114.86602540378443 0.5000000000000001 26.000000000000004
    vertex 114.96592582628905 0.7411809548974794 0.0
    vertex 114.96592582628905 0.7411809548974794 26.000000000000004
  endloop
endfacet
facet normal 0.38268343236507063 0.9238795325112947 0.0
  outer loop
    vertex 114.25881904510251 59.965925826289066 26.000000000000004
    vertex 114.5 59.86602540378444 0.0
    vertex 114.25881904510251 59.965925826289066 0.0
  endloop
endfacet
facet normal 0.38268343236507063 0.9238795325112947 0.0
  outer loop
    vertex 114.5 59.86602540378444 0.0
    vertex 114.25881904510251 59.965925826289066 26.000000000000004
    vertex 114.5 59.86602540378444 26.000000000000004
  endloop
endfacet
facet normal -0.7933533402912345 -0.6087614290087214 -0.0
  outer loop
    vertex 0.1339745962155613 0.5000000000000001 26.000000000000004
    vertex 0.2928932188134531 0.29289321881345215 0.0
    vertex 0.2928932188134531 0.29289321881345215 26.000000000000004
  endloop
endfacet
facet normal -0.7933533402912345 -0.6087614290087214 -0.0
  outer loop
    vertex 0.2928932188134531 0.29289321881345215 0.0
    vertex 0.1339745962155613 0.5000000000000001 26.000000000000004
    vertex 0.1339745962155613 0.5000000000000001 0.0
  endloop
endfacet
facet normal -0.6087614290087205 -0.7933533402912353 -0.0
  outer loop
    vertex 0.5000000000000006 0.13397459621556113 26.000000000000004
    vertex 0.2928932188134531 0.29289321881345215 0.0
    vertex 0.5000000000000006 0.13397459621556113 0.0
  endloop
endfacet
facet normal -0.6087614290087205 -0.7933533402912353 -0.0
  outer loop
    vertex 0.2928932188134531 0.29289321881345215 0.0
    vertex 0.5000000000000006 0.13397459621556113 26.000000000000004
    vertex 0.2928932188134531 0.29289321881345215 26.000000000000004
  endloop
endfacet
facet normal 0.0 0.0 1.0
  outer loop
    vertex 0.03407417371093175 0.7411809548974791 26.000000000000004
    vertex 2.2912227670701667e-15 59.00000000000001 26.000000000000004
    vertex 0.0 0.9999999999999998 26.000000000000004
  endloop
endfacet
facet normal 0.0 0.0 1.0
  outer loop
    vertex 2.2912227670701667e-15 59.00000000000001 26.000000000000004
    vertex 0.03407417371093175 0.7411809548974791 26.000000000000004
    vertex 0.03407417371093405 59.25881904510253 26.000000000000004
  endloop
endfacet
facet normal 0.0 0.0 1.0
  outer loop
    vertex 0.03407417371093405 59.25881904510253 26.000000000000004
    vertex 0.03407417371093175 0.7411809548974791 26.000000000000004
    vertex 0.1339745962155613 0.5000000000000001 26.000000000000004
  endloop
endfacet
facet normal 0.0 0.0 1.0
  outer loop
    vertex 0.03407417371093405 59.25881904510253 26.000000000000004
    vertex 0.1339745962155613 0.5000000000000001 26.000000000000004
    vertex 0.1339745962155634 59.50000000000001 26.000000000000004
  endloop
endfacet
facet normal 0.0 0.0 1.0
  outer loop
    vertex 0.1339745962155634 59.50000000000001 26.000000000000004
    vertex 0.1339745962155613 0.5000000000000001 26.000000000000004
    vertex 0.2928932188134531 0.29289321881345215 26.000000000000004
  endloop
endfacet
facet normal 0.0 0.0 1.0
  outer loop
    vertex 0.1339745962155634 59.50000000000001 26.000000000000004
    vertex 0.2928932188134531 0.29289321881345215 26.000000000000004
    vertex 0.29289321881345415 59.70710678118655 26.000000000000004
  endloop
endfacet
facet normal 0.0 0.0 1.0
  outer loop
    vertex 0.29289321881345415 59.70710678118655 26.000000000000004
    vertex 0.2928932188134531 0.29289321881345215 26.000000000000004
    vertex 0.5000000000000006 0.13397459621556113 26.000000000000004
  endloop
endfacet
facet normal 0.0 0.0 1.0
  outer loop
    vertex 0.29289321881345415 59.70710678118655 26.000000000000004
    vertex 0.5000000000000006 0.13397459621556113 26.000000000000004
    vertex 0.5000000000000014 59.86602540378444 26.000000000000004
  endloop
endfacet
facet normal 0.0 0.0 1.0
  outer loop
    vertex 0.5000000000000014 59.86602540378444 26.000000000000004
    vertex 0.5000000000000006 0.13397459621556113 26.000000000000004
    vertex 0.7411809548974796 0.03407417371093175 26.000000000000004
  endloop
endfacet
facet normal 0.0 0.0 1.0
  outer loop
    vertex 0.5000000000000014 59.86602540378444 26.000000000000004
    vertex 0.7411809548974796 0.03407417371093175 26.000000000000004
    vertex 0.7411809548974801 59.96592582628908 26.000000000000004
  endloop
endfacet
facet normal 0.0 0.0 1.0
  outer loop
    vertex 0.7411809548974801 59.96592582628908 26.000000000000004
    vertex 0.7411809548974796 0.03407417371093175 26.000000000000004
    vertex 1.0000000000000013 0.0 26.000000000000004
  endloop
endfacet
facet normal 0.0 0.0 1.0
  outer loop
    vertex 0.7411809548974801 59.96592582628908 26.000000000000004
    vertex 1.0000000000000013 0.0 26.000000000000004
    vertex 0.9999999999999996 1.0000000000000004 26.000000000000004
  endloop
endfacet
facet normal 0.0 0.0 1.0
  outer loop
    vertex 0.9999999999999996 1.0000000000000004 26.000000000000004
    vertex 1.0000000000000013 0.0 26.000000000000004
    vertex 114.0 1.0000000000000004 26.000000000000004
  endloop
endfacet
facet normal 0.0 0.0 1.0
  outer loop
    vertex 114.0 1.0000000000000004 26.000000000000004
    vertex 1.0000000000000013 0.0 26.000000000000004
    vertex 114.0 0.0 26.000000000000004
  endloop
endfacet
facet normal 0.0 0.0 1.0
  outer loop
    vertex 114.0 1.0000000000000004 26.000000000000004
    vertex 114.0 0.0 26.000000000000004
    vertex 114.25881904510251 0.03407417371093175 26.000000000000004
  endloop
endfacet
facet normal 0.0 0.0 1.0
  outer loop
    vertex 114.0 1.0000000000000004 26.000000000000004
    vertex 114.25881904510251 0.03407417371093175 26.000000000000004
    vertex 114.0 59.00000000000001 26.000000000000004
  endloop
endfacet
facet normal 0.0 0.0 1.0
  outer loop
    vertex 114.0 59.00000000000001 26.000000000000004
    vertex 114.25881904510251 0.03407417371093175 26.000000000000004
    vertex 114.0 60.0 26.000000000000004
  endloop
endfacet
facet normal 0.0 0.0 1.0
  outer loop
    vertex 114.0 60.0 26.000000000000004
    vertex 114.25881904510251 0.03407417371093175 26.000000000000004
    vertex 114.25881904510251 59.965925826289066 26.000000000000004
  endloop
endfacet
facet normal 0.0 0.0 1.0
  outer loop
    vertex 114.25881904510251 59.965925826289066 26.000000000000004
    vertex 114.25881904510251 0.03407417371093175 26.000000000000004
    vertex 114.5 0.1339745962155613 26.000000000000004
  endloop
endfacet
facet normal 0.0 0.0 1.0
  outer loop
    vertex 114.25881904510251 59.965925826289066 26.000000000000004
    vertex 114.5 0.1339745962155613 26.000000000000004
    vertex 114.5 59.86602540378444 26.000000000000004
  endloop
endfacet
facet normal 0.0 0.0 1.0
  outer loop
    vertex 114.5 59.86602540378444 26.000000000000004
    vertex 114.5 0.1339745962155613 26.000000000000004
    vertex 114.70710678118654 0.2928932188134526 26.000000000000004
  endloop
endfacet
facet normal 0.0 0.0 1.0
  outer loop
    vertex 114.5 59.86602540378444 26.000000000000004
    vertex 114.70710678118654 0.2928932188134526 26.000000000000004
    vertex 114.70710678118654 59.70710678118655 26.000000000000004
  endloop
endfacet
facet normal 0.0 0.0 1.0
  outer loop
    vertex 114.70710678118654 59.70710678118655 26.000000000000004
    vertex 114.70710678118654 0.2928932188134526 26.000000000000004
    vertex 114.86602540378443 0.5000000000000001 26.000000000000004
  endloop
endfacet
facet normal 0.0 0.0 1.0
  outer loop
    vertex 114.70710678118654 59.70710678118655 26.000000000000004
    vertex 114.86602540378443 0.5000000000000001 26.000000000000004
    vertex 114.86602540378443 59.50000000000001 26.000000000000004
  endloop
endfacet
facet normal 0.0 0.0 1.0
  outer loop
    vertex 114.86602540378443 59.50000000000001 26.000000000000004
    vertex 114.86602540378443 0.5000000000000001 26.000000000000004
    vertex 114.96592582628905 0.7411809548974794 26.000000000000004
  endloop
endfacet
facet normal 0.0 0.0 1.0
  outer loop
    vertex 114.86602540378443 59.50000000000001 26.000000000000004
    vertex 114.96592582628905 0.7411809548974794 26.000000000000004
    vertex 114.96592582628905 59.25881904510253 26.000000000000004
  endloop
endfacet
facet normal 0.0 0.0 1.0
  outer loop
    vertex 114.96592582628905 59.25881904510253 26.000000000000004
    vertex 114.96592582628905 0.7411809548974794 26.000000000000004
    vertex 114.99999999999999 1.0000000000000004 26.000000000000004
  endloop
endfacet
facet normal 0.0 0.0 1.0
  outer loop
    vertex 114.96592582628905 59.25881904510253 26.000000000000004
    vertex 114.99999999999999 1.0000000000000004 26.000000000000004
    vertex 114.99999999999999 59.00000000000001 26.000000000000004
  endloop
endfacet
facet normal 0.0 0.0 1.0
  outer loop
    vertex 0.9999999999999996 1.0000000000000004 26.000000000000004
    vertex 1.0000000000000004 60.0 26.000000000000004
    vertex 0.7411809548974801 59.96592582628908 26.000000000000004
  endloop
endfacet
facet normal 0.0 0.0 1.0
  outer loop
    vertex 1.0000000000000004 60.0 26.000000000000004
    vertex 0.9999999999999996 1.0000000000000004 26.000000000000004
    vertex 1.0000000000000009 59.00000000000001 26.000000000000004
  endloop
endfacet
facet normal 0.0 0.0 1.0
  outer loop
    vertex 1.0000000000000004 60.0 26.000000000000004
    vertex 1.0000000000000009 59.00000000000001 26.000000000000004
    vertex 114.0 60.0 26.000000000000004
  endloop
endfacet
facet normal 0.0 0.0 1.0
  outer loop
    vertex 114.0 60.0 26.000000000000004
    vertex 1.0000000000000009 59.00000000000001 26.000000000000004
    vertex 114.0 59.00000000000001 26.000000000000004
  endloop
endfacet
facet normal -0.9238795325112867 -0.3826834323650896 -0.0
  outer loop
    vertex 0.03407417371093175 0.7411809548974791 26.000000000000004
    vertex 0.1339745962155613 0.5000000000000001 0.0
    vertex 0.1339745962155613 0.5000000000000001 26.000000000000004
  endloop
endfacet
facet normal -0.9238795325112867 -0.3826834323650896 -0.0
  outer loop
    vertex 0.1339745962155613 0.5000000000000001 0.0
    vertex 0.03407417371093175 0.7411809548974791 26.000000000000004
    vertex 0.03407417371093175 0.7411809548974791 0.0
  endloop
endfacet
facet normal -1.0 -0.0 -0.0
  outer loop
    vertex 114.0 59.00000000000001 26.000000000000004
    vertex 114.0 1.0000000000000004 24.0
    vertex 114.0 1.0000000000000004 26.000000000000004
  endloop
endfacet
facet normal -1.0 -0.0 -0.0
  outer loop
    vertex 114.0 1.0000000000000004 24.0
    vertex 114.0 59.00000000000001 26.000000000000004
    vertex 114.0 59.00000000000001 24.0
  endloop
endfacet
facet normal 1.0 -2.6110800764332383e-17 0.0
  outer loop
    vertex 2.9999999999999973 57.00000000000001 0.9999999999999999
    vertex 2.999999999999996 3.0000000000000013 19.000000000000004
    vertex 2.999999999999996 3.0000000000000013 0.9999999999999999
  endloop
endfacet
facet normal 1.0 -2.6110800764332383e-17 0.0
  outer loop
    vertex 2.999999999999996 3.0000000000000013 19.000000000000004
    vertex 2.9999999999999973 57.00000000000001 0.9999999999999999
    vertex 2.9999999999999973 57.00000000000001 19.000000000000004
  endloop
endfacet
facet normal 0.0 0.0 1.0
  outer loop
    vertex 0.9999999999999996 1.0000000000000004 24.0
    vertex 1.9999999999999978 2.0000000000000013 24.0
    vertex 1.0000000000000009 59.00000000000001 24.0
  endloop
endfacet
facet normal 0.0 0.0 1.0
  outer loop
    vertex 1.9999999999999978 2.0000000000000013 24.0
    vertex 0.9999999999999996 1.0000000000000004 24.0
    vertex 114.0 1.0000000000000004 24.0
  endloop
endfacet
facet normal 0.0 0.0 1.0
  outer loop
    vertex 1.9999999999999978 2.0000000000000013 24.0
    vertex 114.0 1.0000000000000004 24.0
    vertex 113.0 2.0000000000000013 24.0
  endloop
endfacet
facet normal 0.0 0.0 1.0
  outer loop
    vertex 113.0 2.0000000000000013 24.0
    vertex 114.0 1.0000000000000004 24.0
    vertex 113.0 58.00000000000001 24.0
  endloop
endfacet
facet normal 0.0 0.0 1.0
  outer loop
    vertex 1.0000000000000009 59.00000000000001 24.0
    vertex 1.9999999999999991 58.00000000000001 24.0
    vertex 114.0 59.00000000000001 24.0
  endloop
endfacet
facet normal 0.0 0.0 1.0
  outer loop
    vertex 1.9999999999999991 58.00000000000001 24.0
    vertex 1.0000000000000009 59.00000000000001 24.0
    vertex 1.9999999999999978 2.0000000000000013 24.0
  endloop
endfacet
facet normal 0.0 0.0 1.0
  outer loop
    vertex 114.0 59.00000000000001 24.0
    vertex 1.9999999999999991 58.00000000000001 24.0
    vertex 113.0 58.00000000000001 24.0
  endloop
endfacet
facet normal 0.0 0.0 1.0
  outer loop
    vertex 114.0 59.00000000000001 24.0
    vertex 113.0 58.00000000000001 24.0
    vertex 114.0 1.0000000000000004 24.0
  endloop
endfacet
facet normal -1.0 -0.0 -0.0
  outer loop
    vertex 113.0 58.00000000000001 24.0
    vertex 113.0 2.0000000000000013 19.000000000000004
    vertex 113.0 2.0000000000000013 24.0
  endloop
endfacet
facet normal -1.0 -0.0 -0.0
  outer loop
    vertex 113.0 2.0000000000000013 19.000000000000004
    vertex 113.0 58.00000000000001 24.0
    vertex 113.0 58.00000000000001 19.000000000000004
  endloop
endfacet
facet normal 0.0 1.0 0.0
  outer loop
    vertex 1.9999999999999978 2.0000000000000013 24.0
    vertex 113.0 2.0000000000000013 19.000000000000004
    vertex 1.9999999999999978 2.0000000000000013 19.000000000000004
  endloop
endfacet
facet normal 0.0 1.0 0.0
  outer loop
    vertex 113.0 2.0000000000000013 19.000000000000004
    vertex 1.9999999999999978 2.0000000000000013 24.0
    vertex 113.0 2.0000000000000013 24.0
  endloop
endfacet
facet normal 1.0 -2.4310055884033596e-17 0.0
  outer loop
    vertex 1.0000000000000009 59.00000000000001 24.0
    vertex 0.9999999999999996 1.0000000000000004 26.000000000000004
    vertex 0.9999999999999996 1.0000000000000004 24.0
  endloop
endfacet
facet normal 1.0 -2.4310055884033596e-17 0.0
  outer loop
    vertex 0.9999999999999996 1.0000000000000004 26.000000000000004
    vertex 1.0000000000000009 59.00000000000001 24.0
    vertex 1.0000000000000009 59.00000000000001 26.000000000000004
  endloop
endfacet
facet normal 0.0 -1.0 0.0
  outer loop
    vertex 113.0 58.00000000000001 24.0
    vertex 62.5 58.00000000000001 19.000000000000004
    vertex 113.0 58.00000000000001 19.000000000000004
  endloop
endfacet
facet normal 0.0 -1.0 0.0
  outer loop
    vertex 62.5 58.00000000000001 19.000000000000004
    vertex 113.0 58.00000000000001 24.0
    vertex 52.49999999999999 58.00000000000001 19.000000000000004
  endloop
endfacet
facet normal 0.0 -1.0 0.0
  outer loop
    vertex 52.49999999999999 58.00000000000001 19.000000000000004
    vertex 1.9999999999999991 58.00000000000001 24.0
    vertex 1.9999999999999991 58.00000000000001 19.000000000000004
  endloop
endfacet
facet normal 0.0 -1.0 0.0
  outer loop
    vertex 1.9999999999999991 58.00000000000001 24.0
    vertex 52.49999999999999 58.00000000000001 19.000000000000004
    vertex 113.0 58.00000000000001 24.0
  endloop
endfacet
facet normal 1.0 -2.5178272165606222e-17 0.0
  outer loop
    vertex 1.9999999999999991 58.00000000000001 19.000000000000004
    vertex 1.9999999999999978 2.0000000000000013 24.0
    vertex 1.9999999999999978 2.0000000000000013 19.000000000000004
  endloop
endfacet
facet normal 1.0 -2.5178272165606222e-17 0.0
  outer loop
    vertex 1.9999999999999978 2.0000000000000013 24.0
    vertex 1.9999999999999991 58.00000000000001 19.000000000000004
    vertex 1.9999999999999991 58.00000000000001 24.0
  endloop
endfacet
facet normal -0.3826834323650891 -0.9238795325112871 -0.0
  outer loop
    vertex 0.7411809548974796 0.03407417371093175 26.000000000000004
    vertex 0.5000000000000006 0.13397459621556113 0.0
    vertex 0.7411809548974796 0.03407417371093175 0.0
  endloop
endfacet
facet normal -0.3826834323650891 -0.9238795325112871 -0.0
  outer loop
    vertex 0.5000000000000006 0.13397459621556113 0.0
    vertex 0.7411809548974796 0.03407417371093175 26.000000000000004
    vertex 0.5000000000000006 0.13397459621556113 26.000000000000004
  endloop
endfacet
facet normal 0.0 -1.0 0.0
  outer loop
    vertex 114.0 59.00000000000001 26.000000000000004
    vertex 1.0000000000000009 59.00000000000001 24.0
    vertex 114.0 59.00000000000001 24.0
  endloop
endfacet
facet normal 0.0 -1.0 0.0
  outer loop
    vertex 1.0000000000000009 59.00000000000001 24.0
    vertex 114.0 59.00000000000001 26.000000000000004
    vertex 1.0000000000000009 59.00000000000001 26.000000000000004
  endloop
endfacet
facet normal 0.0 1.0 0.0
  outer loop
    vertex 2.999999999999996 3.0000000000000013 19.000000000000004
    vertex 112.0 3.0000000000000013 0.9999999999999999
    vertex 2.999999999999996 3.0000000000000013 0.9999999999999999
  endloop
endfacet
facet normal 0.0 1.0 0.0
  outer loop
    vertex 112.0 3.0000000000000013 0.9999999999999999
    vertex 2.999999999999996 3.0000000000000013 19.000000000000004
    vertex 112.0 3.0000000000000013 19.000000000000004
  endloop
endfacet
facet normal 0.0 -1.0 9.399888275159657e-16
  outer loop
    vertex 112.0 57.00000000000001 19.000000000000004
    vertex 2.9999999999999973 57.00000000000001 0.9999999999999999
    vertex 112.0 57.00000000000001 0.9999999999999999
  endloop
endfacet
facet normal 0.0 -1.0 9.399888275159657e-16
  outer loop
    vertex 2.9999999999999973 57.00000000000001 0.9999999999999999
    vertex 112.0 57.00000000000001 19.000000000000004
    vertex 62.5 57.00000000000004 14.000000000000005
  endloop
endfacet
facet normal 0.0 -1.0 9.399888275159657e-16
  outer loop
    vertex 62.5 57.00000000000004 14.000000000000005
    vertex 112.0 57.00000000000001 19.000000000000004
    vertex 62.5 57.00000000000004 19.000000000000004
  endloop
endfacet
facet normal 0.0 -1.0 9.399888275159657e-16
  outer loop
    vertex 2.9999999999999973 57.00000000000001 0.9999999999999999
    vertex 52.49999999999999 57.00000000000004 14.000000000000005
    vertex 2.9999999999999973 57.00000000000001 19.000000000000004
  endloop
endfacet
facet normal 0.0 -1.0 9.399888275159657e-16
  outer loop
    vertex 52.49999999999999 57.00000000000004 14.000000000000005
    vertex 2.9999999999999973 57.00000000000001 0.9999999999999999
    vertex 62.5 57.00000000000004 14.000000000000005
  endloop
endfacet
facet normal 0.0 -1.0 9.399888275159657e-16
  outer loop
    vertex 2.9999999999999973 57.00000000000001 19.000000000000004
    vertex 52.49999999999999 57.00000000000004 14.000000000000005
    vertex 52.49999999999999 57.00000000000004 19.000000000000004
  endloop
endfacet
facet normal 0.0 1.0 0.0
  outer loop
    vertex 0.9999999999999996 1.0000000000000004 26.000000000000004
    vertex 114.0 1.0000000000000004 24.0
    vertex 0.9999999999999996 1.0000000000000004 24.0
  endloop
endfacet
facet normal 0.0 1.0 0.0
  outer loop
    vertex 114.0 1.0000000000000004 24.0
    vertex 0.9999999999999996 1.0000000000000004 26.000000000000004
    vertex 114.0 1.0000000000000004 26.000000000000004
  endloop
endfacet
facet normal 0.0 0.0 1.0
  outer loop
    vertex 112.0 3.0000000000000013 0.9999999999999999
    vertex 2.9999999999999973 57.00000000000001 0.9999999999999999
    vertex 2.999999999999996 3.0000000000000013 0.9999999999999999
  endloop
endfacet
facet normal 0.0 0.0 1.0
  outer loop
    vertex 2.9999999999999973 57.00000000000001 0.9999999999999999
    vertex 112.0 3.0000000000000013 0.9999999999999999
    vertex 112.0 57.00000000000001 0.9999999999999999
  endloop
endfacet
facet normal -1.0 -0.0 -0.0
  outer loop
    vertex 112.0 57.00000000000001 19.000000000000004
    vertex 112.0 3.0000000000000013 0.9999999999999999
    vertex 112.0 3.0000000000000013 19.000000000000004
  endloop
endfacet
facet normal -1.0 -0.0 -0.0
  outer loop
    vertex 112.0 3.0000000000000013 0.9999999999999999
    vertex 112.0 57.00000000000001 19.000000000000004
    vertex 112.0 57.00000000000001 0.9999999999999999
  endloop
endfacet
endsolid Untitled-5a5ef71b
