# Alias OBJ Model File
# Exported from SketchUp, (c) 2000-2012 Trimble Navigation Limited
# File units = millimeters

mtllib bottom_v2.mtl

g Mesh1 Group1 Model

usemtl FrontColor
v 113 20 -2
vt -4.44882 0.0787402
vn 0 -1 -0
v 62.5 20 -2
vt -2.46063 0.0787402
v 62.5 20 -3
vt -2.46063 0.11811
v 112 20 -3
vt -4.40945 0.11811
v 112 20 -35.8398
vt -4.40945 1.41102
v 3 20 -35.8398
vt -0.11811 1.41102
v 3 20 -3
vt -0.11811 0.11811
v 52.5 20 -3
vt -2.06693 0.11811
v 52.5 20 -2
vt -2.06693 0.0787402
v 2 20 -2
vt -0.0787402 0.0787402
v 2 20 -36.8398
vt -0.0787402 1.45039
v 113 20 -36.8398
vt -4.44882 1.45039
f 1/1/1 2/2/1 3/3/1 4/4/1 5/5/1 6/6/1 7/7/1 8/8/1 9/9/1 10/10/1 11/11/1 12/12/1 

vt -2.46063 0.787402
vn -6.37789e-35 4.4062e-17 -1
vt -2.06693 0.787402
vt -0.0787402 0.787402
v 2 24 -2
vt -0.0787402 0.944882
v 113 24 -2
vt -4.44882 0.944882
vt -4.44882 0.787402
f 2/13/2 9/14/2 10/15/2 13/16/2 14/17/2 1/18/2 

v 62.5 20 -1
vt -2.46063 0.0393701
v 52.5 20 -1
vt -2.06693 0.0393701
f 15/19/1 16/20/1 9/9/1 2/2/1 

vn 0 0 -1
v 114 0 -1
vt -4.48819 0
f 15/13/3 17/21/3 16/14/3

v 114 24 -1
vt -4.48819 0.944882
f 17/21/3 15/13/3 18/22/3

v 62.5 21 -1
vt -2.46063 0.826772
f 18/22/3 15/13/3 19/23/3

v 1 24 -1
vt -0.0393701 0.944882
f 18/22/3 19/23/3 20/24/3

v 52.5 21 -1
vt -2.06693 0.826772
f 21/25/3 20/24/3 19/23/3

f 16/14/3 20/24/3 21/25/3

f 17/21/3 20/24/3 16/14/3

v 1 0 -1
vt -0.0393701 0
f 20/24/3 17/21/3 22/26/3

v 1 0 -1.76248e-16
vt -0.0393701 6.93889e-18
vt -0.0393701 0.0393701
vt -4.48819 0.0393701
f 23/27/1 22/28/1 17/29/1

v 0.741181 0 -38.8057
vt -0.0291804 1.52778
f 23/27/1 24/30/1 22/28/1

v 0.741181 0 -0.0340742
vt -0.0291804 0.0013415
f 25/31/1 24/30/1 23/27/1

v 0.5 0 -38.7058
vt -0.019685 1.52385
f 25/31/1 26/32/1 24/30/1

v 0.5 0 -0.133975
vt -0.019685 0.00527459
f 27/33/1 26/32/1 25/31/1

v 0.292893 0 -38.5469
vt -0.0115312 1.51759
f 27/33/1 28/34/1 26/32/1

v 0.292893 0 -0.292893
vt -0.0115312 0.0115312
f 29/35/1 28/34/1 27/33/1

v 0.133975 0 -38.3398
vt -0.00527459 1.50944
f 29/35/1 30/36/1 28/34/1

v 0.133975 0 -0.5
vt -0.00527459 0.019685
f 31/37/1 30/36/1 29/35/1

v 0.0340742 0 -38.0986
vt -0.0013415 1.49995
f 31/37/1 32/38/1 30/36/1

v 0.0340742 0 -0.741181
vt -0.0013415 0.0291804
f 33/39/1 32/38/1 31/37/1

v 1.76248e-15 0 -37.8398
vt -6.93889e-17 1.48976
f 33/39/1 34/40/1 32/38/1

v 0 0 -1
vt 0 0.0393701
f 34/40/1 33/39/1 35/41/1

vt -0.0390333 0
vn -0.991445 0 0.130526
vt -0.0287556 0
vn -0.965926 0 0.258819
v 0.0340742 26 -0.741181
vt -0.0287556 1.02362
v 0 26 -1
vt -0.0390333 1.02362
f 35/42/4 33/43/5 36/44/5 37/45/4 

vt -0.0264458 0
vt -0.0161681 0
vn -0.866025 0 0.5
v 0.133975 26 -0.5
vt -0.0161681 1.02362
vt -0.0264458 1.02362
f 33/46/5 31/47/6 38/48/6 36/49/5 

vt -0.0124062 0
vt -0.00212857 0
vn -0.707107 0 0.707107
v 0.292893 26 -0.292893
vt -0.00212857 1.02362
vt -0.0124062 1.02362
f 31/50/6 29/51/7 39/52/7 38/53/6 

vt 0.00212857 0
vt 0.0124062 0
vn -0.5 0 0.866025
v 0.5 26 -0.133975
vt 0.0124062 1.02362
vt 0.00212857 1.02362
f 29/54/7 27/55/8 40/56/8 39/57/7 

vt 0.0161681 0
vt 0.0264458 0
vn -0.258819 0 0.965926
v 0.741181 26 -0.0340742
vt 0.0264458 1.02362
vt 0.0161681 1.02362
f 27/58/8 25/59/9 41/60/9 40/61/8 

vt 0.0287556 0
vt 0.0390333 0
vn -0.130526 0 0.991445
v 1 26 -1.76248e-16
vt 0.0390333 1.02362
vt 0.0287556 1.02362
f 25/62/9 23/63/10 42/64/10 41/65/9 

vt 0.0393701 0
vn -1.55972e-18 0 1
v 52.5 16 -8.8124e-17
vt 2.06693 0.629921
vt 0.0393701 1.02362
f 23/66/11 43/67/11 42/68/11

v 62.5 16 -8.8124e-17
vt 2.46063 0.629921
f 43/67/11 23/66/11 44/69/11

v 114 26 -0
vt 4.48819 1.02362
f 23/66/11 45/70/11 44/69/11

v 114 0 -0
vt 4.48819 0
f 45/70/11 23/66/11 46/71/11

f 23/27/1 17/29/1 46/21/1

v 114.259 0 -38.8057
vt -4.49838 1.52778
f 17/29/1 47/72/1 46/21/1

v 114 0 -37.8398
vt -4.48819 1.48976
f 48/73/1 47/72/1 17/29/1

v 114 0 -38.8398
vt -4.48819 1.52913
f 48/73/1 49/74/1 47/72/1

v 1 0 -37.8398
vt -0.0393701 1.48976
f 50/75/1 49/74/1 48/73/1

v 1 0 -38.8398
vt -0.0393701 1.52913
f 50/75/1 51/76/1 49/74/1

f 22/28/1 51/76/1 50/75/1

f 51/76/1 22/28/1 24/30/1

vt -0.238624 0
vn -0.130526 0 -0.991445
vt -0.228347 0
vn -0.258819 0 -0.965926
v 0.741181 26 -38.8057
vt -0.228347 1.02362
v 1 26 -38.8398
vt -0.238624 1.02362
f 51/77/12 24/78/13 52/79/13 53/80/12 

vt -0.611617 0
vt -0.601339 0
vn -0.5 0 -0.866025
v 0.5 26 -38.7058
vt -0.601339 1.02362
vt -0.611617 1.02362
f 24/81/13 26/82/14 54/83/14 52/84/13 

vt -0.943279 0
vt -0.933001 0
vn -0.707107 0 -0.707107
v 0.292893 26 -38.5469
vt -0.933001 1.02362
vt -0.943279 1.02362
f 26/85/14 28/86/15 55/87/15 54/88/14 

vt -1.21101 0
vt -1.20073 0
vn -0.866025 0 -0.5
v 0.133975 26 -38.3398
vt -1.20073 1.02362
vt -1.21101 1.02362
f 28/89/15 30/90/16 56/91/16 55/92/15 

vt -1.39656 0
vt -1.38628 0
vn -0.965926 0 -0.258819
v 0.0340742 26 -38.0986
vt -1.38628 1.02362
vt -1.39656 1.02362
f 30/93/16 32/94/17 57/95/17 56/96/16 

vt -1.48729 0
vt -1.47701 0
vn -0.991445 0 -0.130526
v 1.76248e-15 26 -37.8398
vt -1.47701 1.02362
vt -1.48729 1.02362
f 32/97/17 34/98/18 58/99/18 57/100/17 

vt -1.48976 0
vn -1 0 -4.78417e-17
vt -0.0393701 1.02362
vt -1.48976 1.02362
f 34/101/19 35/26/19 37/102/19 58/103/19 

vt 0.0013415 0.0291804
vn 0 1 -0
vt 6.93889e-17 1.48976
f 36/104/20 58/105/20 37/41/20

vt 0.0013415 1.49995
f 58/105/20 36/104/20 57/106/20

vt 0.00527459 0.019685
f 57/106/20 36/104/20 38/107/20

vt 0.00527459 1.50944
f 57/106/20 38/107/20 56/108/20

vt 0.0115312 0.0115312
f 56/108/20 38/107/20 39/109/20

vt 0.0115312 1.51759
f 56/108/20 39/109/20 55/110/20

vt 0.019685 0.00527459
f 55/110/20 39/109/20 40/111/20

vt 0.019685 1.52385
f 55/110/20 40/111/20 54/112/20

vt 0.0291804 0.0013415
f 54/112/20 40/111/20 41/113/20

vt 0.0291804 1.52778
f 54/112/20 41/113/20 52/114/20

vt 0.0393701 6.93889e-18
f 52/114/20 41/113/20 42/115/20

v 1 26 -1
vt 0.0393701 0.0393701
f 52/114/20 42/115/20 59/116/20

v 114 26 -1
vt 4.48819 0.0393701
f 59/116/20 42/115/20 60/117/20

f 60/117/20 42/115/20 45/71/20

v 52.5 20 -0
vt 2.06693 0.787402
f 42/68/11 61/118/11 45/70/11

f 42/68/11 43/67/11 61/118/11

vt 3.46945e-18 0.629921
vn 1 0 -0
v 52.5 16 -1
vt 0.0393701 0.629921
vt 0.0393701 0.787402
vt 0 0.787402
f 43/119/21 62/120/21 16/121/21 61/122/21 

vt 2.46063 3.46945e-18
v 62.5 16 -1
vt 2.46063 0.0393701
vt 2.06693 0.0393701
vt 2.06693 3.46945e-18
f 44/123/20 63/124/20 62/125/20 43/126/20 

v 62.5 20 -0
vn -1 0 -0
vt -0.0393701 0.787402
vt -0.0393701 0.629921
vt -3.46945e-18 0.629921
f 64/122/22 15/127/22 63/128/22 44/129/22 

vt -2.46063 0
vt -2.06693 0
f 64/130/1 61/131/1 16/20/1 15/19/1 

vt 2.46063 0.787402
f 64/132/11 45/70/11 61/118/11

f 44/69/11 45/70/11 64/132/11

v 62.5 16 -3
vt 0.11811 0.629921
vt 0.11811 0.787402
vt 0.0787402 0.787402
f 63/120/21 65/133/21 3/134/21 2/135/21 15/121/21 

v 52.5 16 -3
f 62/20/1 66/8/1 65/3/1 63/19/1 

vt -0.11811 0.787402
vt -0.11811 0.629921
f 16/127/22 9/15/22 8/136/22 66/137/22 62/128/22 

vt 4.40945 0.787402
vn -1.28095e-49 -2.41238e-17 1
v 3 1 -3
vt 0.11811 0.0393701
v 112 1 -3
vt 4.40945 0.0393701
f 4/138/23 3/132/23 65/69/23 66/67/23 8/118/23 7/134/23 67/139/23 68/140/23 

vn -1 -2.20053e-18 -6.44028e-17
vt -1.41102 0.787402
v 3 1 -35.8398
vt -1.41102 0.0393701
vt -0.11811 0.0393701
f 7/136/24 6/141/24 69/142/24 67/143/24 

vn 9.15738e-35 -2.08072e-17 -1
vt -4.40945 0.787402
v 112 1 -35.8398
vt -4.40945 0.0393701
f 6/136/25 5/144/25 70/145/25 69/143/25 

vt 1.41102 0.787402
vn 1 2.20053e-18 -2.97144e-35
vt 1.41102 0.0393701
f 5/146/26 4/134/26 68/139/26 70/147/26 

vn 2.20053e-18 -1 2.08072e-17
f 70/5/27 68/4/27 67/7/27 69/6/27 

v 114.259 26 -0.0340742
vt 4.49838 0.0013415
f 60/117/20 45/71/20 71/148/20

vt 4.44979 0
vn 0.130526 0 0.991445
v 114.259 0 -0.0340742
vt 4.46007 0
vn 0.258819 0 0.965926
vt 4.46007 1.02362
vt 4.44979 1.02362
f 46/149/28 72/150/29 71/151/29 45/152/28 

vt -4.49838 0.0013415
f 46/21/1 47/72/1 72/153/1

v 114.5 0 -38.7058
vt -4.50787 1.52385
f 72/153/1 47/72/1 73/154/1

vt -3.58158 0
vn 0.5 0 -0.866025
vt -3.5713 0
vn 0.258819 0 -0.965926
v 114.259 26 -38.8057
vt -3.5713 1.02362
v 114.5 26 -38.7058
vt -3.58158 1.02362
f 73/155/30 47/156/31 74/157/31 75/158/30 

vt -4.26048 0
vt -4.2502 0
vn 0.130526 0 -0.991445
v 114 26 -38.8398
vt -4.2502 1.02362
vt -4.26048 1.02362
f 47/159/31 49/160/32 76/161/32 74/162/31 

usemtl M_0137_Black
vt -4.48819 1.02362
f 49/21/3 51/26/3 53/102/3 76/163/3 

usemtl FrontColor
vt 0.0393701 1.52913
v 1 26 -37.8398
vt 0.0393701 1.48976
vt 4.48819 1.52913
f 53/164/20 77/165/20 76/166/20

f 53/164/20 59/116/20 77/165/20

f 59/116/20 53/164/20 52/114/20

vn 1 -1.84161e-33 8.61151e-17
vt 0.0393701 0.944882
v 1 24 -37.8398
vt 1.48976 0.944882
vt 1.48976 1.02362
f 59/68/33 20/167/33 78/168/33 77/169/33 

f 60/163/3 18/22/3 20/24/3 59/102/3 

v 114 26 -37.8398
v 114 24 -37.8398
vt -1.48976 0.944882
f 79/103/22 80/170/22 18/24/22 60/102/22 

vn 0 0 1
vt 4.48819 0.944882
f 77/68/34 78/167/34 80/171/34 79/70/34 

f 50/66/34 48/71/34 80/171/34 78/167/34 

f 48/101/22 17/26/22 18/24/22 80/170/22 

f 18/29/1 14/1/1 80/73/1

f 18/29/1 13/10/1 14/1/1

f 20/28/1 13/10/1 18/29/1

f 13/10/1 20/28/1 78/75/1

vn 1 0 8.61151e-17
vt 1.48976 0
f 22/66/35 50/172/35 78/168/35 20/167/35 

v 2 24 -36.8398
f 78/75/1 81/11/1 13/10/1

f 81/11/1 78/75/1 80/73/1

v 113 24 -36.8398
f 81/11/1 80/73/1 82/12/1

f 82/12/1 80/73/1 14/1/1

vt 1.45039 0.787402
vt 1.45039 0.944882
vt 0.0787402 0.944882
f 1/135/21 12/173/21 82/174/21 14/175/21 

f 12/18/3 11/15/3 81/16/3 82/17/3 

vt -1.45039 0.787402
vn -1 0 -7.08233e-17
vt -1.45039 0.944882
f 11/176/36 10/15/36 13/16/36 81/177/36 

vt 4.48819 1.48976
f 76/166/20 77/165/20 79/178/20

f 79/178/20 71/148/20 76/166/20

f 60/117/20 71/148/20 79/178/20

vt 4.49838 1.52778
f 76/166/20 71/148/20 74/179/20

v 114.5 26 -0.133975
vt 4.50787 0.00527459
f 74/179/20 71/148/20 83/180/20

vt 4.15647 0
v 114.5 0 -0.133975
vt 4.16675 0
vn 0.5 0 0.866025
vt 4.16675 1.02362
vt 4.15647 1.02362
f 72/181/29 84/182/37 83/183/37 71/184/29 

vt -4.50787 0.00527459
f 72/153/1 73/154/1 84/185/1

v 114.707 0 -38.5469
vt -4.51603 1.51759
f 84/185/1 73/154/1 85/186/1

vt -2.65895 0
vn 0.707107 0 -0.707107
vt -2.64867 0
vt -2.64867 1.02362
v 114.707 26 -38.5469
vt -2.65895 1.02362
f 85/187/38 73/188/30 75/189/30 86/190/38 

vt 4.50787 1.52385
v 114.707 26 -0.292893
vt 4.51603 0.0115312
vt 4.51603 1.51759
f 75/191/20 87/192/20 86/193/20

f 75/191/20 83/180/20 87/192/20

f 74/179/20 83/180/20 75/191/20

vt 3.57955 0
v 114.707 0 -0.292893
vt 3.58983 0
vn 0.707107 0 0.707107
vt 3.58983 1.02362
vt 3.57955 1.02362
f 84/194/37 88/195/39 87/196/39 83/197/37 

vt -4.51603 0.0115312
f 84/185/1 85/186/1 88/198/1

v 114.866 0 -38.3398
vt -4.52228 1.50944
f 88/198/1 85/186/1 89/199/1

vt -1.55547 0
vn 0.866025 0 -0.5
vt -1.54519 0
vt -1.54519 1.02362
v 114.866 26 -38.3398
vt -1.55547 1.02362
f 89/200/40 85/201/38 86/202/38 90/203/40 

v 114.866 26 -0.5
vt 4.52228 0.019685
vt 4.52228 1.50944
f 86/193/20 91/204/20 90/205/20

f 86/193/20 87/192/20 91/204/20

vt 2.75833 0
v 114.866 0 -0.5
vt 2.76861 0
vn 0.866025 0 0.5
vt 2.76861 1.02362
vt 2.75833 1.02362
f 88/206/39 92/207/41 91/208/41 87/209/39 

vt -4.52228 0.019685
f 88/198/1 89/199/1 92/210/1

v 114.966 0 -38.0986
vt -4.52622 1.49995
f 92/210/1 89/199/1 93/211/1

vt -0.346339 0
vn 0.965926 0 -0.258819
vt -0.336062 0
vt -0.336062 1.02362
v 114.966 26 -38.0986
vt -0.346339 1.02362
f 93/212/42 89/213/40 90/214/40 94/215/42 

v 114.966 26 -0.741181
vt 4.52622 0.0291804
vt 4.52622 1.49995
f 90/205/20 95/216/20 94/217/20

f 90/205/20 91/204/20 95/216/20

vt 1.74879 0
v 114.966 0 -0.741181
vt 1.75907 0
vn 0.965926 0 0.258819
vt 1.75907 1.02362
vt 1.74879 1.02362
f 92/218/41 96/219/43 95/220/43 91/221/41 

vt -4.52622 0.0291804
f 92/210/1 93/211/1 96/222/1

v 115 0 -37.8398
vt -4.52756 1.48976
f 96/222/1 93/211/1 97/223/1

vt 0.886046 0
vn 0.991445 0 -0.130526
vt 0.896323 0
vt 0.896323 1.02362
v 115 26 -37.8398
vt 0.886046 1.02362
f 97/224/44 93/225/42 94/226/42 98/227/44 

v 115 26 -1
vt 4.52756 0.0393701
vt 4.52756 1.48976
f 94/217/20 99/228/20 98/229/20

f 94/217/20 95/216/20 99/228/20

vt 0.619721 0
v 115 0 -1
vt 0.629998 0
vn 0.991445 0 0.130526
vt 0.629998 1.02362
vt 0.619721 1.02362
f 96/230/43 100/231/45 99/232/45 95/233/43 

vt -4.52756 0.0393701
f 96/222/1 97/223/1 100/234/1

f 100/66/21 97/172/21 98/169/21 99/68/21 

