solid Untitled-5a5ef77a
facet normal 0.0 0.0 -1.0
  outer loop
    vertex 0.27259338968745545 10.07055236082019 0.0
    vertex 0.2725933896874526 5.929447639179848 0.0
    vertex 0.0 8.000000000000007 0.0
  endloop
endfacet
facet normal 0.0 0.0 -1.0
  outer loop
    vertex 0.2725933896874526 5.929447639179848 0.0
    vertex 0.27259338968745545 10.07055236082019 0.0
    vertex 1.071796769724489 4.000000000000015 0.0
  endloop
endfacet
facet normal 0.0 0.0 -1.0
  outer loop
    vertex 1.071796769724489 4.000000000000015 0.0
    vertex 0.27259338968745545 10.07055236082019 0.0
    vertex 1.0717967697244946 12.000000000000023 0.0
  endloop
endfacet
facet normal 0.0 0.0 -1.0
  outer loop
    vertex 1.071796769724489 4.000000000000015 0.0
    vertex 1.0717967697244946 12.000000000000023 0.0
    vertex 2.3431457505076208 2.3431457505076136 0.0
  endloop
endfacet
facet normal 0.0 0.0 -1.0
  outer loop
    vertex 2.3431457505076208 2.3431457505076136 0.0
    vertex 1.0717967697244946 12.000000000000023 0.0
    vertex 2.3431457505076247 13.656854249492403 0.0
  endloop
endfacet
facet normal 0.0 0.0 -1.0
  outer loop
    vertex 2.3431457505076208 2.3431457505076136 0.0
    vertex 2.3431457505076247 13.656854249492403 0.0
    vertex 4.000000000000001 1.0717967697244946 0.0
  endloop
endfacet
facet normal 0.0 0.0 -1.0
  outer loop
    vertex 4.000000000000001 1.0717967697244946 0.0
    vertex 2.3431457505076247 13.656854249492403 0.0
    vertex 4.000000000000007 14.928203230275521 0.0
  endloop
endfacet
facet normal 0.0 0.0 -1.0
  outer loop
    vertex 4.000000000000001 1.0717967697244946 0.0
    vertex 4.000000000000007 14.928203230275521 0.0
    vertex 5.929447639179833 0.272593389687454 0.0
  endloop
endfacet
facet normal 0.0 0.0 -1.0
  outer loop
    vertex 5.929447639179833 0.272593389687454 0.0
    vertex 4.000000000000007 14.928203230275521 0.0
    vertex 5.929447639179843 15.727406610312562 0.0
  endloop
endfacet
facet normal 0.0 0.0 -1.0
  outer loop
    vertex 5.929447639179833 0.272593389687454 0.0
    vertex 5.929447639179843 15.727406610312562 0.0
    vertex 8.000000000000007 0.0 0.0
  endloop
endfacet
facet normal 0.0 0.0 -1.0
  outer loop
    vertex 8.000000000000007 0.0 0.0
    vertex 5.929447639179843 15.727406610312562 0.0
    vertex 8.000000000000007 16.000000000000014 0.0
  endloop
endfacet
facet normal 0.0 0.0 -1.0
  outer loop
    vertex 8.000000000000007 0.0 0.0
    vertex 8.000000000000007 16.000000000000014 0.0
    vertex 10.070552360820178 15.727406610312562 0.0
  endloop
endfacet
facet normal 0.0 0.0 -1.0
  outer loop
    vertex 8.000000000000007 0.0 0.0
    vertex 10.070552360820178 15.727406610312562 0.0
    vertex 10.070552360820177 0.272593389687454 0.0
  endloop
endfacet
facet normal 0.0 0.0 -1.0
  outer loop
    vertex 10.070552360820177 0.272593389687454 0.0
    vertex 10.070552360820178 15.727406610312562 0.0
    vertex 12.000000000000012 1.0717967697244946 0.0
  endloop
endfacet
facet normal 0.0 0.0 -1.0
  outer loop
    vertex 12.000000000000012 1.0717967697244946 0.0
    vertex 10.070552360820178 15.727406610312562 0.0
    vertex 12.000000000000014 14.928203230275521 0.0
  endloop
endfacet
facet normal 0.0 0.0 -1.0
  outer loop
    vertex 12.000000000000012 1.0717967697244946 0.0
    vertex 12.000000000000014 14.928203230275521 0.0
    vertex 13.656854249492394 2.3431457505076136 0.0
  endloop
endfacet
facet normal 0.0 0.0 -1.0
  outer loop
    vertex 13.656854249492394 2.3431457505076136 0.0
    vertex 12.000000000000014 14.928203230275521 0.0
    vertex 13.656854249492394 13.656854249492403 0.0
  endloop
endfacet
facet normal 0.0 0.0 -1.0
  outer loop
    vertex 13.656854249492394 2.3431457505076136 0.0
    vertex 13.656854249492394 13.656854249492403 0.0
    vertex 14.928203230275525 12.0 0.0
  endloop
endfacet
facet normal 0.0 0.0 -1.0
  outer loop
    vertex 13.656854249492394 2.3431457505076136 0.0
    vertex 14.928203230275525 12.0 0.0
    vertex 14.928203230275525 3.9999999999999925 0.0
  endloop
endfacet
facet normal 0.0 0.0 -1.0
  outer loop
    vertex 14.928203230275525 3.9999999999999925 0.0
    vertex 14.928203230275525 12.0 0.0
    vertex 15.727406610312562 10.070552360820168 0.0
  endloop
endfacet
facet normal 0.0 0.0 -1.0
  outer loop
    vertex 14.928203230275525 3.9999999999999925 0.0
    vertex 15.727406610312562 10.070552360820168 0.0
    vertex 15.727406610312562 5.929447639179848 0.0
  endloop
endfacet
facet normal 0.0 0.0 -1.0
  outer loop
    vertex 15.727406610312562 5.929447639179848 0.0
    vertex 15.727406610312562 10.070552360820168 0.0
    vertex 16.000000000000014 8.000000000000007 0.0
  endloop
endfacet
facet normal 0.0 0.0 1.0
  outer loop
    vertex 0.2725933896874526 5.929447639179848 0.9999999999999999
    vertex 0.27259338968745545 10.07055236082019 0.9999999999999999
    vertex 0.0 8.000000000000007 0.9999999999999999
  endloop
endfacet
facet normal 0.0 0.0 1.0
  outer loop
    vertex 0.27259338968745545 10.07055236082019 0.9999999999999999
    vertex 0.2725933896874526 5.929447639179848 0.9999999999999999
    vertex 1.071796769724489 4.000000000000015 0.9999999999999999
  endloop
endfacet
facet normal 0.0 0.0 1.0
  outer loop
    vertex 0.27259338968745545 10.07055236082019 0.9999999999999999
    vertex 1.071796769724489 4.000000000000015 0.9999999999999999
    vertex 1.0717967697244946 12.000000000000023 0.9999999999999999
  endloop
endfacet
facet normal 0.0 0.0 1.0
  outer loop
    vertex 1.0717967697244946 12.000000000000023 0.9999999999999999
    vertex 1.071796769724489 4.000000000000015 0.9999999999999999
    vertex 2.3431457505076208 2.3431457505076136 0.9999999999999999
  endloop
endfacet
facet normal 0.0 0.0 1.0
  outer loop
    vertex 1.0717967697244946 12.000000000000023 0.9999999999999999
    vertex 2.3431457505076208 2.3431457505076136 0.9999999999999999
    vertex 2.3431457505076247 13.656854249492403 0.9999999999999999
  endloop
endfacet
facet normal 0.0 0.0 1.0
  outer loop
    vertex 2.3431457505076247 13.656854249492403 0.9999999999999999
    vertex 2.3431457505076208 2.3431457505076136 0.9999999999999999
    vertex 2.5329120375217715 8.000000000000007 0.9999999999999999
  endloop
endfacet
facet normal 0.0 0.0 1.0
  outer loop
    vertex 2.5329120375217715 8.000000000000007 0.9999999999999999
    vertex 2.3431457505076208 2.3431457505076136 0.9999999999999999
    vertex 2.7191985424481975 6.5850135140599155 0.9999999999999999
  endloop
endfacet
facet normal 0.0 0.0 1.0
  outer loop
    vertex 2.7191985424481975 6.5850135140599155 0.9999999999999999
    vertex 2.3431457505076208 2.3431457505076136 0.9999999999999999
    vertex 4.000000000000001 1.0717967697244946 0.9999999999999999
  endloop
endfacet
facet normal 0.0 0.0 1.0
  outer loop
    vertex 2.7191985424481975 6.5850135140599155 0.9999999999999999
    vertex 4.000000000000001 1.0717967697244946 0.9999999999999999
    vertex 3.2653629397697492 5.2664560187608895 0.9999999999999999
  endloop
endfacet
facet normal 0.0 0.0 1.0
  outer loop
    vertex 3.2653629397697492 5.2664560187608895 0.9999999999999999
    vertex 4.000000000000001 1.0717967697244946 0.9999999999999999
    vertex 4.134185028388298 4.134185028388301 0.9999999999999999
  endloop
endfacet
facet normal 0.0 0.0 1.0
  outer loop
    vertex 4.134185028388298 4.134185028388301 0.9999999999999999
    vertex 4.000000000000001 1.0717967697244946 0.9999999999999999
    vertex 5.929447639179833 0.272593389687454 0.9999999999999999
  endloop
endfacet
facet normal 0.0 0.0 1.0
  outer loop
    vertex 4.134185028388298 4.134185028388301 0.9999999999999999
    vertex 5.929447639179833 0.272593389687454 0.9999999999999999
    vertex 5.266456018760887 3.2653629397697435 0.9999999999999999
  endloop
endfacet
facet normal 0.0 0.0 1.0
  outer loop
    vertex 5.266456018760887 3.2653629397697435 0.9999999999999999
    vertex 5.929447639179833 0.272593389687454 0.9999999999999999
    vertex 6.585013514059901 2.7191985424482086 0.9999999999999999
  endloop
endfacet
facet normal 0.0 0.0 1.0
  outer loop
    vertex 6.585013514059901 2.7191985424482086 0.9999999999999999
    vertex 5.929447639179833 0.272593389687454 0.9999999999999999
    vertex 8.000000000000007 0.0 0.9999999999999999
  endloop
endfacet
facet normal 0.0 0.0 1.0
  outer loop
    vertex 6.585013514059901 2.7191985424482086 0.9999999999999999
    vertex 8.000000000000007 0.0 0.9999999999999999
    vertex 8.000000000000005 2.5329120375217715 0.9999999999999999
  endloop
endfacet
facet normal 0.0 0.0 1.0
  outer loop
    vertex 8.000000000000005 2.5329120375217715 0.9999999999999999
    vertex 8.000000000000007 0.0 0.9999999999999999
    vertex 9.414986485940112 2.7191985424482086 0.9999999999999999
  endloop
endfacet
facet normal 0.0 0.0 1.0
  outer loop
    vertex 9.414986485940112 2.7191985424482086 0.9999999999999999
    vertex 8.000000000000007 0.0 0.9999999999999999
    vertex 10.070552360820177 0.272593389687454 0.9999999999999999
  endloop
endfacet
facet normal 0.0 0.0 1.0
  outer loop
    vertex 9.414986485940112 2.7191985424482086 0.9999999999999999
    vertex 10.070552360820177 0.272593389687454 0.9999999999999999
    vertex 10.733543981239126 3.2653629397697435 0.9999999999999999
  endloop
endfacet
facet normal 0.0 0.0 1.0
  outer loop
    vertex 10.733543981239126 3.2653629397697435 0.9999999999999999
    vertex 10.070552360820177 0.272593389687454 0.9999999999999999
    vertex 12.000000000000012 1.0717967697244946 0.9999999999999999
  endloop
endfacet
facet normal 0.0 0.0 1.0
  outer loop
    vertex 10.733543981239126 3.2653629397697435 0.9999999999999999
    vertex 12.000000000000012 1.0717967697244946 0.9999999999999999
    vertex 11.865814971611712 4.134185028388301 0.9999999999999999
  endloop
endfacet
facet normal 0.0 0.0 1.0
  outer loop
    vertex 11.865814971611712 4.134185028388301 0.9999999999999999
    vertex 12.000000000000012 1.0717967697244946 0.9999999999999999
    vertex 12.734637060230266 5.2664560187608895 0.9999999999999999
  endloop
endfacet
facet normal 0.0 0.0 1.0
  outer loop
    vertex 12.734637060230266 5.2664560187608895 0.9999999999999999
    vertex 12.000000000000012 1.0717967697244946 0.9999999999999999
    vertex 13.656854249492394 2.3431457505076136 0.9999999999999999
  endloop
endfacet
facet normal 0.0 0.0 1.0
  outer loop
    vertex 12.734637060230266 5.2664560187608895 0.9999999999999999
    vertex 13.656854249492394 2.3431457505076136 0.9999999999999999
    vertex 13.280801457551815 6.5850135140599155 0.9999999999999999
  endloop
endfacet
facet normal 0.0 0.0 1.0
  outer loop
    vertex 13.280801457551815 6.5850135140599155 0.9999999999999999
    vertex 13.656854249492394 2.3431457505076136 0.9999999999999999
    vertex 13.467087962478244 8.000000000000007 0.9999999999999999
  endloop
endfacet
facet normal 0.0 0.0 1.0
  outer loop
    vertex 2.3431457505076247 13.656854249492403 0.9999999999999999
    vertex 2.7191985424482 9.414986485940123 0.9999999999999999
    vertex 4.000000000000007 14.928203230275521 0.9999999999999999
  endloop
endfacet
facet normal 0.0 0.0 1.0
  outer loop
    vertex 2.7191985424482 9.414986485940123 0.9999999999999999
    vertex 2.3431457505076247 13.656854249492403 0.9999999999999999
    vertex 2.5329120375217715 8.000000000000007 0.9999999999999999
  endloop
endfacet
facet normal 0.0 0.0 1.0
  outer loop
    vertex 4.000000000000007 14.928203230275521 0.9999999999999999
    vertex 2.7191985424482 9.414986485940123 0.9999999999999999
    vertex 3.2653629397697506 10.733543981239126 0.9999999999999999
  endloop
endfacet
facet normal 0.0 0.0 1.0
  outer loop
    vertex 4.000000000000007 14.928203230275521 0.9999999999999999
    vertex 3.2653629397697506 10.733543981239126 0.9999999999999999
    vertex 4.134185028388305 11.865814971611714 0.9999999999999999
  endloop
endfacet
facet normal 0.0 0.0 1.0
  outer loop
    vertex 4.000000000000007 14.928203230275521 0.9999999999999999
    vertex 4.134185028388305 11.865814971611714 0.9999999999999999
    vertex 5.929447639179843 15.727406610312562 0.9999999999999999
  endloop
endfacet
facet normal 0.0 0.0 1.0
  outer loop
    vertex 5.929447639179843 15.727406610312562 0.9999999999999999
    vertex 4.134185028388305 11.865814971611714 0.9999999999999999
    vertex 5.2664560187608895 12.734637060230272 0.9999999999999999
  endloop
endfacet
facet normal 0.0 0.0 1.0
  outer loop
    vertex 5.929447639179843 15.727406610312562 0.9999999999999999
    vertex 5.2664560187608895 12.734637060230272 0.9999999999999999
    vertex 6.585013514059907 13.280801457551807 0.9999999999999999
  endloop
endfacet
facet normal 0.0 0.0 1.0
  outer loop
    vertex 5.929447639179843 15.727406610312562 0.9999999999999999
    vertex 6.585013514059907 13.280801457551807 0.9999999999999999
    vertex 8.000000000000007 16.000000000000014 0.9999999999999999
  endloop
endfacet
facet normal 0.0 0.0 1.0
  outer loop
    vertex 8.000000000000007 16.000000000000014 0.9999999999999999
    vertex 6.585013514059907 13.280801457551807 0.9999999999999999
    vertex 8.00000000000001 13.467087962478244 0.9999999999999999
  endloop
endfacet
facet normal 0.0 0.0 1.0
  outer loop
    vertex 8.000000000000007 16.000000000000014 0.9999999999999999
    vertex 8.00000000000001 13.467087962478244 0.9999999999999999
    vertex 10.070552360820178 15.727406610312562 0.9999999999999999
  endloop
endfacet
facet normal 0.0 0.0 1.0
  outer loop
    vertex 10.070552360820178 15.727406610312562 0.9999999999999999
    vertex 8.00000000000001 13.467087962478244 0.9999999999999999
    vertex 9.414986485940112 13.280801457551807 0.9999999999999999
  endloop
endfacet
facet normal 0.0 0.0 1.0
  outer loop
    vertex 10.070552360820178 15.727406610312562 0.9999999999999999
    vertex 9.414986485940112 13.280801457551807 0.9999999999999999
    vertex 10.733543981239126 12.734637060230272 0.9999999999999999
  endloop
endfacet
facet normal 0.0 0.0 1.0
  outer loop
    vertex 10.070552360820178 15.727406610312562 0.9999999999999999
    vertex 10.733543981239126 12.734637060230272 0.9999999999999999
    vertex 12.000000000000014 14.928203230275521 0.9999999999999999
  endloop
endfacet
facet normal 0.0 0.0 1.0
  outer loop
    vertex 12.000000000000014 14.928203230275521 0.9999999999999999
    vertex 10.733543981239126 12.734637060230272 0.9999999999999999
    vertex 11.865814971611714 11.865814971611714 0.9999999999999999
  endloop
endfacet
facet normal 0.0 0.0 1.0
  outer loop
    vertex 12.000000000000014 14.928203230275521 0.9999999999999999
    vertex 11.865814971611714 11.865814971611714 0.9999999999999999
    vertex 12.734637060230266 10.733543981239126 0.9999999999999999
  endloop
endfacet
facet normal 0.0 0.0 1.0
  outer loop
    vertex 12.000000000000014 14.928203230275521 0.9999999999999999
    vertex 12.734637060230266 10.733543981239126 0.9999999999999999
    vertex 13.656854249492394 13.656854249492403 0.9999999999999999
  endloop
endfacet
facet normal 0.0 0.0 1.0
  outer loop
    vertex 13.656854249492394 13.656854249492403 0.9999999999999999
    vertex 12.734637060230266 10.733543981239126 0.9999999999999999
    vertex 13.280801457551815 9.414986485940123 0.9999999999999999
  endloop
endfacet
facet normal 0.0 0.0 1.0
  outer loop
    vertex 13.656854249492394 13.656854249492403 0.9999999999999999
    vertex 13.280801457551815 9.414986485940123 0.9999999999999999
    vertex 13.467087962478244 8.000000000000007 0.9999999999999999
  endloop
endfacet
facet normal 0.0 0.0 1.0
  outer loop
    vertex 13.656854249492394 13.656854249492403 0.9999999999999999
    vertex 13.467087962478244 8.000000000000007 0.9999999999999999
    vertex 13.656854249492394 2.3431457505076136 0.9999999999999999
  endloop
endfacet
facet normal 0.0 0.0 1.0
  outer loop
    vertex 13.656854249492394 13.656854249492403 0.9999999999999999
    vertex 13.656854249492394 2.3431457505076136 0.9999999999999999
    vertex 14.928203230275525 3.9999999999999925 0.9999999999999999
  endloop
endfacet
facet normal 0.0 0.0 1.0
  outer loop
    vertex 13.656854249492394 13.656854249492403 0.9999999999999999
    vertex 14.928203230275525 3.9999999999999925 0.9999999999999999
    vertex 14.928203230275525 12.0 0.9999999999999999
  endloop
endfacet
facet normal 0.0 0.0 1.0
  outer loop
    vertex 14.928203230275525 12.0 0.9999999999999999
    vertex 14.928203230275525 3.9999999999999925 0.9999999999999999
    vertex 15.727406610312562 5.929447639179848 0.9999999999999999
  endloop
endfacet
facet normal 0.0 0.0 1.0
  outer loop
    vertex 14.928203230275525 12.0 0.9999999999999999
    vertex 15.727406610312562 5.929447639179848 0.9999999999999999
    vertex 15.727406610312562 10.070552360820168 0.9999999999999999
  endloop
endfacet
facet normal 0.0 0.0 1.0
  outer loop
    vertex 15.727406610312562 10.070552360820168 0.9999999999999999
    vertex 15.727406610312562 5.929447639179848 0.9999999999999999
    vertex 16.000000000000014 8.000000000000007 0.9999999999999999
  endloop
endfacet
facet normal 0.13052619222005163 -0.9914448613738104 0.0
  outer loop
    vertex 10.070552360820177 0.272593389687454 0.9999999999999999
    vertex 8.000000000000007 0.0 0.0
    vertex 10.070552360820177 0.272593389687454 0.0
  endloop
endfacet
facet normal 0.13052619222005163 -0.9914448613738104 0.0
  outer loop
    vertex 8.000000000000007 0.0 0.0
    vertex 10.070552360820177 0.272593389687454 0.9999999999999999
    vertex 8.000000000000007 0.0 0.9999999999999999
  endloop
endfacet
facet normal 0.9238795325112882 -0.38268343236508634 0.0
  outer loop
    vertex 15.727406610312562 5.929447639179848 0.0
    vertex 14.928203230275525 3.9999999999999925 0.9999999999999999
    vertex 14.928203230275525 3.9999999999999925 0.0
  endloop
endfacet
facet normal 0.9238795325112882 -0.38268343236508634 0.0
  outer loop
    vertex 14.928203230275525 3.9999999999999925 0.9999999999999999
    vertex 15.727406610312562 5.929447639179848 0.0
    vertex 15.727406610312562 5.929447639179848 0.9999999999999999
  endloop
endfacet
facet normal -0.13052619222005118 -0.9914448613738105 -0.0
  outer loop
    vertex 8.000000000000007 0.0 0.9999999999999999
    vertex 5.929447639179833 0.272593389687454 0.0
    vertex 8.000000000000007 0.0 0.0
  endloop
endfacet
facet normal -0.13052619222005118 -0.9914448613738105 -0.0
  outer loop
    vertex 5.929447639179833 0.272593389687454 0.0
    vertex 8.000000000000007 0.0 0.9999999999999999
    vertex 5.929447639179833 0.272593389687454 0.9999999999999999
  endloop
endfacet
facet normal 0.7933533402912386 0.6087614290087161 0.0
  outer loop
    vertex 13.656854249492394 13.656854249492403 0.0
    vertex 14.928203230275525 12.0 0.9999999999999999
    vertex 14.928203230275525 12.0 0.0
  endloop
endfacet
facet normal 0.7933533402912386 0.6087614290087161 0.0
  outer loop
    vertex 14.928203230275525 12.0 0.9999999999999999
    vertex 13.656854249492394 13.656854249492403 0.0
    vertex 13.656854249492394 13.656854249492403 0.9999999999999999
  endloop
endfacet
facet normal -0.38268343236509156 -0.9238795325112861 -0.0
  outer loop
    vertex 5.929447639179833 0.272593389687454 0.9999999999999999
    vertex 4.000000000000001 1.0717967697244946 0.0
    vertex 5.929447639179833 0.272593389687454 0.0
  endloop
endfacet
facet normal -0.38268343236509156 -0.9238795325112861 -0.0
  outer loop
    vertex 4.000000000000001 1.0717967697244946 0.0
    vertex 5.929447639179833 0.272593389687454 0.9999999999999999
    vertex 4.000000000000001 1.0717967697244946 0.9999999999999999
  endloop
endfacet
facet normal 0.9914448613738104 -0.13052619222005216 0.0
  outer loop
    vertex 16.000000000000014 8.000000000000007 0.0
    vertex 15.727406610312562 5.929447639179848 0.9999999999999999
    vertex 15.727406610312562 5.929447639179848 0.0
  endloop
endfacet
facet normal 0.9914448613738104 -0.13052619222005216 0.0
  outer loop
    vertex 15.727406610312562 5.929447639179848 0.9999999999999999
    vertex 16.000000000000014 8.000000000000007 0.0
    vertex 16.000000000000014 8.000000000000007 0.9999999999999999
  endloop
endfacet
facet normal 0.9238795325112867 0.3826834323650902 0.0
  outer loop
    vertex 14.928203230275525 12.0 0.0
    vertex 15.727406610312562 10.070552360820168 0.9999999999999999
    vertex 15.727406610312562 10.070552360820168 0.0
  endloop
endfacet
facet normal 0.9238795325112867 0.3826834323650902 0.0
  outer loop
    vertex 15.727406610312562 10.070552360820168 0.9999999999999999
    vertex 14.928203230275525 12.0 0.0
    vertex 14.928203230275525 12.0 0.9999999999999999
  endloop
endfacet
facet normal -0.6087614290087175 -0.7933533402912375 -0.0
  outer loop
    vertex 4.000000000000001 1.0717967697244946 0.9999999999999999
    vertex 2.3431457505076208 2.3431457505076136 0.0
    vertex 4.000000000000001 1.0717967697244946 0.0
  endloop
endfacet
facet normal -0.6087614290087175 -0.7933533402912375 -0.0
  outer loop
    vertex 2.3431457505076208 2.3431457505076136 0.0
    vertex 4.000000000000001 1.0717967697244946 0.9999999999999999
    vertex 2.3431457505076208 2.3431457505076136 0.9999999999999999
  endloop
endfacet
facet normal 0.7933533402912347 -0.6087614290087213 0.0
  outer loop
    vertex 14.928203230275525 3.9999999999999925 0.0
    vertex 13.656854249492394 2.3431457505076136 0.9999999999999999
    vertex 13.656854249492394 2.3431457505076136 0.0
  endloop
endfacet
facet normal 0.7933533402912347 -0.6087614290087213 0.0
  outer loop
    vertex 13.656854249492394 2.3431457505076136 0.9999999999999999
    vertex 14.928203230275525 3.9999999999999925 0.0
    vertex 14.928203230275525 3.9999999999999925 0.9999999999999999
  endloop
endfacet
facet normal 0.38268343236509084 -0.9238795325112863 0.0
  outer loop
    vertex 12.000000000000012 1.0717967697244946 0.9999999999999999
    vertex 10.070552360820177 0.272593389687454 0.0
    vertex 12.000000000000012 1.0717967697244946 0.0
  endloop
endfacet
facet normal 0.38268343236509084 -0.9238795325112863 0.0
  outer loop
    vertex 10.070552360820177 0.272593389687454 0.0
    vertex 12.000000000000012 1.0717967697244946 0.9999999999999999
    vertex 10.070552360820177 0.272593389687454 0.9999999999999999
  endloop
endfacet
facet normal 0.9914448613738104 0.13052619222005216 0.0
  outer loop
    vertex 15.727406610312562 10.070552360820168 0.0
    vertex 16.000000000000014 8.000000000000007 0.9999999999999999
    vertex 16.000000000000014 8.000000000000007 0.0
  endloop
endfacet
facet normal 0.9914448613738104 0.13052619222005216 0.0
  outer loop
    vertex 16.000000000000014 8.000000000000007 0.9999999999999999
    vertex 15.727406610312562 10.070552360820168 0.0
    vertex 15.727406610312562 10.070552360820168 0.9999999999999999
  endloop
endfacet
facet normal 0.6087614290087173 -0.7933533402912377 0.0
  outer loop
    vertex 13.656854249492394 2.3431457505076136 0.9999999999999999
    vertex 12.000000000000012 1.0717967697244946 0.0
    vertex 13.656854249492394 2.3431457505076136 0.0
  endloop
endfacet
facet normal 0.6087614290087173 -0.7933533402912377 0.0
  outer loop
    vertex 12.000000000000012 1.0717967697244946 0.0
    vertex 13.656854249492394 2.3431457505076136 0.9999999999999999
    vertex 12.000000000000012 1.0717967697244946 0.9999999999999999
  endloop
endfacet
facet normal 0.3826834323650805 -0.9238795325112906 0.0
  outer loop
    vertex 10.733543981239126 3.2653629397697435 7.0
    vertex 9.414986485940112 2.7191985424482086 0.9999999999999999
    vertex 10.733543981239126 3.2653629397697435 0.9999999999999999
  endloop
endfacet
facet normal 0.3826834323650805 -0.9238795325112906 0.0
  outer loop
    vertex 9.414986485940112 2.7191985424482086 0.9999999999999999
    vertex 10.733543981239126 3.2653629397697435 7.0
    vertex 9.414986485940112 2.7191985424482086 7.0
  endloop
endfacet
facet normal -0.7933533402912347 0.6087614290087213 0.0
  outer loop
    vertex 2.3431457505076247 13.656854249492403 0.9999999999999999
    vertex 1.0717967697244946 12.000000000000023 0.0
    vertex 1.0717967697244946 12.000000000000023 0.9999999999999999
  endloop
endfacet
facet normal -0.7933533402912347 0.6087614290087213 0.0
  outer loop
    vertex 1.0717967697244946 12.000000000000023 0.0
    vertex 2.3431457505076247 13.656854249492403 0.9999999999999999
    vertex 2.3431457505076247 13.656854249492403 0.0
  endloop
endfacet
facet normal -0.38268343236509084 0.9238795325112863 0.0
  outer loop
    vertex 4.000000000000007 14.928203230275521 0.9999999999999999
    vertex 5.929447639179843 15.727406610312562 0.0
    vertex 4.000000000000007 14.928203230275521 0.0
  endloop
endfacet
facet normal -0.38268343236509084 0.9238795325112863 0.0
  outer loop
    vertex 5.929447639179843 15.727406610312562 0.0
    vertex 4.000000000000007 14.928203230275521 0.9999999999999999
    vertex 5.929447639179843 15.727406610312562 0.9999999999999999
  endloop
endfacet
facet normal -0.6087614290087173 0.7933533402912377 0.0
  outer loop
    vertex 2.3431457505076247 13.656854249492403 0.9999999999999999
    vertex 4.000000000000007 14.928203230275521 0.0
    vertex 2.3431457505076247 13.656854249492403 0.0
  endloop
endfacet
facet normal -0.6087614290087173 0.7933533402912377 0.0
  outer loop
    vertex 4.000000000000007 14.928203230275521 0.0
    vertex 2.3431457505076247 13.656854249492403 0.9999999999999999
    vertex 4.000000000000007 14.928203230275521 0.9999999999999999
  endloop
endfacet
facet normal -0.7933533402912364 -0.6087614290087192 -0.0
  outer loop
    vertex 3.2653629397697492 5.2664560187608895 7.0
    vertex 4.134185028388298 4.134185028388301 0.9999999999999999
    vertex 4.134185028388298 4.134185028388301 7.0
  endloop
endfacet
facet normal -0.7933533402912364 -0.6087614290087192 -0.0
  outer loop
    vertex 4.134185028388298 4.134185028388301 0.9999999999999999
    vertex 3.2653629397697492 5.2664560187608895 7.0
    vertex 3.2653629397697492 5.2664560187608895 0.9999999999999999
  endloop
endfacet
facet normal -0.9914448613738105 0.1305261922200514 0.0
  outer loop
    vertex 0.27259338968745545 10.07055236082019 0.9999999999999999
    vertex 0.0 8.000000000000007 0.0
    vertex 0.0 8.000000000000007 0.9999999999999999
  endloop
endfacet
facet normal -0.9914448613738105 0.1305261922200514 0.0
  outer loop
    vertex 0.0 8.000000000000007 0.0
    vertex 0.27259338968745545 10.07055236082019 0.9999999999999999
    vertex 0.27259338968745545 10.07055236082019 0.0
  endloop
endfacet
facet normal 0.608761429008723 0.7933533402912335 0.0
  outer loop
    vertex 10.733543981239126 12.734637060230272 7.0
    vertex 11.865814971611714 11.865814971611714 0.9999999999999999
    vertex 10.733543981239126 12.734637060230272 0.9999999999999999
  endloop
endfacet
facet normal 0.608761429008723 0.7933533402912335 0.0
  outer loop
    vertex 11.865814971611714 11.865814971611714 0.9999999999999999
    vertex 10.733543981239126 12.734637060230272 7.0
    vertex 11.865814971611714 11.865814971611714 7.0
  endloop
endfacet
facet normal 0.9914448613738102 -0.1305261922200536 0.0
  outer loop
    vertex 13.467087962478244 8.000000000000007 0.9999999999999999
    vertex 13.280801457551815 6.5850135140599155 7.0
    vertex 13.280801457551815 6.5850135140599155 0.9999999999999999
  endloop
endfacet
facet normal 0.9914448613738102 -0.1305261922200536 0.0
  outer loop
    vertex 13.280801457551815 6.5850135140599155 7.0
    vertex 13.467087962478244 8.000000000000007 0.9999999999999999
    vertex 13.467087962478244 8.000000000000007 7.0
  endloop
endfacet
facet normal 0.9238795325112883 -0.38268343236508606 0.0
  outer loop
    vertex 13.280801457551815 6.5850135140599155 0.9999999999999999
    vertex 12.734637060230266 5.2664560187608895 7.0
    vertex 12.734637060230266 5.2664560187608895 0.9999999999999999
  endloop
endfacet
facet normal 0.9238795325112883 -0.38268343236508606 0.0
  outer loop
    vertex 12.734637060230266 5.2664560187608895 7.0
    vertex 13.280801457551815 6.5850135140599155 0.9999999999999999
    vertex 13.280801457551815 6.5850135140599155 7.0
  endloop
endfacet
facet normal -0.9238795325112868 -0.38268343236508956 -0.0
  outer loop
    vertex 0.2725933896874526 5.929447639179848 0.9999999999999999
    vertex 1.071796769724489 4.000000000000015 0.0
    vertex 1.071796769724489 4.000000000000015 0.9999999999999999
  endloop
endfacet
facet normal -0.9238795325112868 -0.38268343236508956 -0.0
  outer loop
    vertex 1.071796769724489 4.000000000000015 0.0
    vertex 0.2725933896874526 5.929447639179848 0.9999999999999999
    vertex 0.2725933896874526 5.929447639179848 0.0
  endloop
endfacet
facet normal 0.13052619222005143 0.9914448613738105 0.0
  outer loop
    vertex 8.000000000000007 16.000000000000014 0.9999999999999999
    vertex 10.070552360820178 15.727406610312562 0.0
    vertex 8.000000000000007 16.000000000000014 0.0
  endloop
endfacet
facet normal 0.13052619222005143 0.9914448613738105 0.0
  outer loop
    vertex 10.070552360820178 15.727406610312562 0.0
    vertex 8.000000000000007 16.000000000000014 0.9999999999999999
    vertex 10.070552360820178 15.727406610312562 0.9999999999999999
  endloop
endfacet
facet normal -0.7933533402912384 -0.6087614290087165 -0.0
  outer loop
    vertex 1.071796769724489 4.000000000000015 0.9999999999999999
    vertex 2.3431457505076208 2.3431457505076136 0.0
    vertex 2.3431457505076208 2.3431457505076136 0.9999999999999999
  endloop
endfacet
facet normal -0.7933533402912384 -0.6087614290087165 -0.0
  outer loop
    vertex 2.3431457505076208 2.3431457505076136 0.0
    vertex 1.071796769724489 4.000000000000015 0.9999999999999999
    vertex 1.071796769724489 4.000000000000015 0.0
  endloop
endfacet
facet normal -0.1305261922200518 0.9914448613738104 0.0
  outer loop
    vertex 5.929447639179843 15.727406610312562 0.9999999999999999
    vertex 8.000000000000007 16.000000000000014 0.0
    vertex 5.929447639179843 15.727406610312562 0.0
  endloop
endfacet
facet normal -0.1305261922200518 0.9914448613738104 0.0
  outer loop
    vertex 8.000000000000007 16.000000000000014 0.0
    vertex 5.929447639179843 15.727406610312562 0.9999999999999999
    vertex 8.000000000000007 16.000000000000014 0.9999999999999999
  endloop
endfacet
facet normal -0.9238795325112864 0.3826834323650908 0.0
  outer loop
    vertex 1.0717967697244946 12.000000000000023 0.9999999999999999
    vertex 0.27259338968745545 10.07055236082019 0.0
    vertex 0.27259338968745545 10.07055236082019 0.9999999999999999
  endloop
endfacet
facet normal -0.9238795325112864 0.3826834323650908 0.0
  outer loop
    vertex 0.27259338968745545 10.07055236082019 0.0
    vertex 1.0717967697244946 12.000000000000023 0.9999999999999999
    vertex 1.0717967697244946 12.000000000000023 0.0
  endloop
endfacet
facet normal -0.9914448613738104 -0.1305261922200515 -0.0
  outer loop
    vertex 0.0 8.000000000000007 0.9999999999999999
    vertex 0.2725933896874526 5.929447639179848 0.0
    vertex 0.2725933896874526 5.929447639179848 0.9999999999999999
  endloop
endfacet
facet normal -0.9914448613738104 -0.1305261922200515 -0.0
  outer loop
    vertex 0.2725933896874526 5.929447639179848 0.0
    vertex 0.0 8.000000000000007 0.9999999999999999
    vertex 0.0 8.000000000000007 0.0
  endloop
endfacet
facet normal -0.1305261922200584 -0.9914448613738096 -0.0
  outer loop
    vertex 8.000000000000005 2.5329120375217715 7.0
    vertex 6.585013514059901 2.7191985424482086 0.9999999999999999
    vertex 8.000000000000005 2.5329120375217715 0.9999999999999999
  endloop
endfacet
facet normal -0.1305261922200584 -0.9914448613738096 -0.0
  outer loop
    vertex 6.585013514059901 2.7191985424482086 0.9999999999999999
    vertex 8.000000000000005 2.5329120375217715 7.0
    vertex 6.585013514059901 2.7191985424482086 7.0
  endloop
endfacet
facet normal 0.38268343236509084 0.9238795325112863 0.0
  outer loop
    vertex 10.070552360820178 15.727406610312562 0.9999999999999999
    vertex 12.000000000000014 14.928203230275521 0.0
    vertex 10.070552360820178 15.727406610312562 0.0
  endloop
endfacet
facet normal 0.38268343236509084 0.9238795325112863 0.0
  outer loop
    vertex 12.000000000000014 14.928203230275521 0.0
    vertex 10.070552360820178 15.727406610312562 0.9999999999999999
    vertex 12.000000000000014 14.928203230275521 0.9999999999999999
  endloop
endfacet
facet normal 0.0 0.0 1.0
  outer loop
    vertex 2.7191985424481975 6.5850135140599155 7.0
    vertex 2.7191985424482 9.414986485940123 7.0
    vertex 2.5329120375217715 8.000000000000007 7.0
  endloop
endfacet
facet normal 0.0 0.0 1.0
  outer loop
    vertex 2.7191985424482 9.414986485940123 7.0
    vertex 2.7191985424481975 6.5850135140599155 7.0
    vertex 3.2653629397697492 5.2664560187608895 7.0
  endloop
endfacet
facet normal 0.0 0.0 1.0
  outer loop
    vertex 2.7191985424482 9.414986485940123 7.0
    vertex 3.2653629397697492 5.2664560187608895 7.0
    vertex 3.2653629397697506 10.733543981239126 7.0
  endloop
endfacet
facet normal 0.0 0.0 1.0
  outer loop
    vertex 3.2653629397697506 10.733543981239126 7.0
    vertex 3.2653629397697492 5.2664560187608895 7.0
    vertex 4.134185028388298 4.134185028388301 7.0
  endloop
endfacet
facet normal 0.0 0.0 1.0
  outer loop
    vertex 3.2653629397697506 10.733543981239126 7.0
    vertex 4.134185028388298 4.134185028388301 7.0
    vertex 4.134185028388305 11.865814971611714 7.0
  endloop
endfacet
facet normal 0.0 0.0 1.0
  outer loop
    vertex 4.134185028388305 11.865814971611714 7.0
    vertex 4.134185028388298 4.134185028388301 7.0
    vertex 5.266456018760887 3.2653629397697435 7.0
  endloop
endfacet
facet normal 0.0 0.0 1.0
  outer loop
    vertex 4.134185028388305 11.865814971611714 7.0
    vertex 5.266456018760887 3.2653629397697435 7.0
    vertex 5.2664560187608895 12.734637060230272 7.0
  endloop
endfacet
facet normal 0.0 0.0 1.0
  outer loop
    vertex 5.2664560187608895 12.734637060230272 7.0
    vertex 5.266456018760887 3.2653629397697435 7.0
    vertex 6.585013514059901 2.7191985424482086 7.0
  endloop
endfacet
facet normal 0.0 0.0 1.0
  outer loop
    vertex 5.2664560187608895 12.734637060230272 7.0
    vertex 6.585013514059901 2.7191985424482086 7.0
    vertex 6.585013514059907 13.280801457551807 7.0
  endloop
endfacet
facet normal 0.0 0.0 1.0
  outer loop
    vertex 6.585013514059907 13.280801457551807 7.0
    vertex 6.585013514059901 2.7191985424482086 7.0
    vertex 8.000000000000005 2.5329120375217715 7.0
  endloop
endfacet
facet normal 0.0 0.0 1.0
  outer loop
    vertex 6.585013514059907 13.280801457551807 7.0
    vertex 8.000000000000005 2.5329120375217715 7.0
    vertex 8.00000000000001 13.467087962478244 7.0
  endloop
endfacet
facet normal 0.0 0.0 1.0
  outer loop
    vertex 8.00000000000001 13.467087962478244 7.0
    vertex 8.000000000000005 2.5329120375217715 7.0
    vertex 9.414986485940112 2.7191985424482086 7.0
  endloop
endfacet
facet normal 0.0 0.0 1.0
  outer loop
    vertex 8.00000000000001 13.467087962478244 7.0
    vertex 9.414986485940112 2.7191985424482086 7.0
    vertex 9.414986485940112 13.280801457551807 7.0
  endloop
endfacet
facet normal 0.0 0.0 1.0
  outer loop
    vertex 9.414986485940112 13.280801457551807 7.0
    vertex 9.414986485940112 2.7191985424482086 7.0
    vertex 10.733543981239126 3.2653629397697435 7.0
  endloop
endfacet
facet normal 0.0 0.0 1.0
  outer loop
    vertex 9.414986485940112 13.280801457551807 7.0
    vertex 10.733543981239126 3.2653629397697435 7.0
    vertex 10.733543981239126 12.734637060230272 7.0
  endloop
endfacet
facet normal 0.0 0.0 1.0
  outer loop
    vertex 10.733543981239126 12.734637060230272 7.0
    vertex 10.733543981239126 3.2653629397697435 7.0
    vertex 11.865814971611712 4.134185028388301 7.0
  endloop
endfacet
facet normal 0.0 0.0 1.0
  outer loop
    vertex 10.733543981239126 12.734637060230272 7.0
    vertex 11.865814971611712 4.134185028388301 7.0
    vertex 11.865814971611714 11.865814971611714 7.0
  endloop
endfacet
facet normal 0.0 0.0 1.0
  outer loop
    vertex 11.865814971611714 11.865814971611714 7.0
    vertex 11.865814971611712 4.134185028388301 7.0
    vertex 12.734637060230266 5.2664560187608895 7.0
  endloop
endfacet
facet normal 0.0 0.0 1.0
  outer loop
    vertex 11.865814971611714 11.865814971611714 7.0
    vertex 12.734637060230266 5.2664560187608895 7.0
    vertex 12.734637060230266 10.733543981239126 7.0
  endloop
endfacet
facet normal 0.0 0.0 1.0
  outer loop
    vertex 12.734637060230266 10.733543981239126 7.0
    vertex 12.734637060230266 5.2664560187608895 7.0
    vertex 13.280801457551815 6.5850135140599155 7.0
  endloop
endfacet
facet normal 0.0 0.0 1.0
  outer loop
    vertex 12.734637060230266 10.733543981239126 7.0
    vertex 13.280801457551815 6.5850135140599155 7.0
    vertex 13.280801457551815 9.414986485940123 7.0
  endloop
endfacet
facet normal 0.0 0.0 1.0
  outer loop
    vertex 13.280801457551815 9.414986485940123 7.0
    vertex 13.280801457551815 6.5850135140599155 7.0
    vertex 13.467087962478244 8.000000000000007 7.0
  endloop
endfacet
facet normal 0.608761429008718 0.7933533402912374 0.0
  outer loop
    vertex 12.000000000000014 14.928203230275521 0.9999999999999999
    vertex 13.656854249492394 13.656854249492403 0.0
    vertex 12.000000000000014 14.928203230275521 0.0
  endloop
endfacet
facet normal 0.608761429008718 0.7933533402912374 0.0
  outer loop
    vertex 13.656854249492394 13.656854249492403 0.0
    vertex 12.000000000000014 14.928203230275521 0.9999999999999999
    vertex 13.656854249492394 13.656854249492403 0.9999999999999999
  endloop
endfacet
facet normal -0.7933533402912349 0.6087614290087211 0.0
  outer loop
    vertex 4.134185028388305 11.865814971611714 7.0
    vertex 3.2653629397697506 10.733543981239126 0.9999999999999999
    vertex 3.2653629397697506 10.733543981239126 7.0
  endloop
endfacet
facet normal -0.7933533402912349 0.6087614290087211 0.0
  outer loop
    vertex 3.2653629397697506 10.733543981239126 0.9999999999999999
    vertex 4.134185028388305 11.865814971611714 7.0
    vertex 4.134185028388305 11.865814971611714 0.9999999999999999
  endloop
endfacet
facet normal -0.9914448613738105 0.13052619222005157 0.0
  outer loop
    vertex 2.7191985424482 9.414986485940123 7.0
    vertex 2.5329120375217715 8.000000000000007 0.9999999999999999
    vertex 2.5329120375217715 8.000000000000007 7.0
  endloop
endfacet
facet normal -0.9914448613738105 0.13052619222005157 0.0
  outer loop
    vertex 2.5329120375217715 8.000000000000007 0.9999999999999999
    vertex 2.7191985424482 9.414986485940123 7.0
    vertex 2.7191985424482 9.414986485940123 0.9999999999999999
  endloop
endfacet
facet normal -0.3826834323650805 -0.9238795325112906 -0.0
  outer loop
    vertex 6.585013514059901 2.7191985424482086 7.0
    vertex 5.266456018760887 3.2653629397697435 0.9999999999999999
    vertex 6.585013514059901 2.7191985424482086 0.9999999999999999
  endloop
endfacet
facet normal -0.3826834323650805 -0.9238795325112906 -0.0
  outer loop
    vertex 5.266456018760887 3.2653629397697435 0.9999999999999999
    vertex 6.585013514059901 2.7191985424482086 7.0
    vertex 5.266456018760887 3.2653629397697435 7.0
  endloop
endfacet
facet normal 0.7933533402912354 0.6087614290087205 0.0
  outer loop
    vertex 11.865814971611714 11.865814971611714 0.9999999999999999
    vertex 12.734637060230266 10.733543981239126 7.0
    vertex 12.734637060230266 10.733543981239126 0.9999999999999999
  endloop
endfacet
facet normal 0.7933533402912354 0.6087614290087205 0.0
  outer loop
    vertex 12.734637060230266 10.733543981239126 7.0
    vertex 11.865814971611714 11.865814971611714 0.9999999999999999
    vertex 11.865814971611714 11.865814971611714 7.0
  endloop
endfacet
facet normal 0.6087614290087239 -0.7933533402912326 0.0
  outer loop
    vertex 11.865814971611712 4.134185028388301 7.0
    vertex 10.733543981239126 3.2653629397697435 0.9999999999999999
    vertex 11.865814971611712 4.134185028388301 0.9999999999999999
  endloop
endfacet
facet normal 0.6087614290087239 -0.7933533402912326 0.0
  outer loop
    vertex 10.733543981239126 3.2653629397697435 0.9999999999999999
    vertex 11.865814971611712 4.134185028388301 7.0
    vertex 10.733543981239126 3.2653629397697435 7.0
  endloop
endfacet
facet normal -0.9238795325112857 0.38268343236509256 0.0
  outer loop
    vertex 3.2653629397697506 10.733543981239126 7.0
    vertex 2.7191985424482 9.414986485940123 0.9999999999999999
    vertex 2.7191985424482 9.414986485940123 7.0
  endloop
endfacet
facet normal -0.9238795325112857 0.38268343236509256 0.0
  outer loop
    vertex 2.7191985424482 9.414986485940123 0.9999999999999999
    vertex 3.2653629397697506 10.733543981239126 7.0
    vertex 3.2653629397697506 10.733543981239126 0.9999999999999999
  endloop
endfacet
facet normal 0.9914448613738105 0.13052619222005157 0.0
  outer loop
    vertex 13.280801457551815 9.414986485940123 0.9999999999999999
    vertex 13.467087962478244 8.000000000000007 7.0
    vertex 13.467087962478244 8.000000000000007 0.9999999999999999
  endloop
endfacet
facet normal 0.9914448613738105 0.13052619222005157 0.0
  outer loop
    vertex 13.467087962478244 8.000000000000007 7.0
    vertex 13.280801457551815 9.414986485940123 0.9999999999999999
    vertex 13.280801457551815 9.414986485940123 7.0
  endloop
endfacet
facet normal -0.608761429008723 -0.7933533402912335 -0.0
  outer loop
    vertex 5.266456018760887 3.2653629397697435 7.0
    vertex 4.134185028388298 4.134185028388301 0.9999999999999999
    vertex 5.266456018760887 3.2653629397697435 0.9999999999999999
  endloop
endfacet
facet normal -0.608761429008723 -0.7933533402912335 -0.0
  outer loop
    vertex 4.134185028388298 4.134185028388301 0.9999999999999999
    vertex 5.266456018760887 3.2653629397697435 7.0
    vertex 4.134185028388298 4.134185028388301 7.0
  endloop
endfacet
facet normal -0.6087614290087239 0.7933533402912326 0.0
  outer loop
    vertex 4.134185028388305 11.865814971611714 7.0
    vertex 5.2664560187608895 12.734637060230272 0.9999999999999999
    vertex 4.134185028388305 11.865814971611714 0.9999999999999999
  endloop
endfacet
facet normal -0.6087614290087239 0.7933533402912326 0.0
  outer loop
    vertex 5.2664560187608895 12.734637060230272 0.9999999999999999
    vertex 4.134185028388305 11.865814971611714 7.0
    vertex 5.2664560187608895 12.734637060230272 7.0
  endloop
endfacet
facet normal -0.3826834323650798 0.923879532511291 0.0
  outer loop
    vertex 5.2664560187608895 12.734637060230272 7.0
    vertex 6.585013514059907 13.280801457551807 0.9999999999999999
    vertex 5.2664560187608895 12.734637060230272 0.9999999999999999
  endloop
endfacet
facet normal -0.3826834323650798 0.923879532511291 0.0
  outer loop
    vertex 6.585013514059907 13.280801457551807 0.9999999999999999
    vertex 5.2664560187608895 12.734637060230272 7.0
    vertex 6.585013514059907 13.280801457551807 7.0
  endloop
endfacet
facet normal -0.1305261922200584 0.9914448613738096 0.0
  outer loop
    vertex 6.585013514059907 13.280801457551807 7.0
    vertex 8.00000000000001 13.467087962478244 0.9999999999999999
    vertex 6.585013514059907 13.280801457551807 0.9999999999999999
  endloop
endfacet
facet normal -0.1305261922200584 0.9914448613738096 0.0
  outer loop
    vertex 8.00000000000001 13.467087962478244 0.9999999999999999
    vertex 6.585013514059907 13.280801457551807 7.0
    vertex 8.00000000000001 13.467087962478244 7.0
  endloop
endfacet
facet normal 0.3826834323650805 0.9238795325112906 0.0
  outer loop
    vertex 9.414986485940112 13.280801457551807 7.0
    vertex 10.733543981239126 12.734637060230272 0.9999999999999999
    vertex 9.414986485940112 13.280801457551807 0.9999999999999999
  endloop
endfacet
facet normal 0.3826834323650805 0.9238795325112906 0.0
  outer loop
    vertex 10.733543981239126 12.734637060230272 0.9999999999999999
    vertex 9.414986485940112 13.280801457551807 7.0
    vertex 10.733543981239126 12.734637060230272 7.0
  endloop
endfacet
facet normal 0.7933533402912344 -0.6087614290087218 0.0
  outer loop
    vertex 12.734637060230266 5.2664560187608895 0.9999999999999999
    vertex 11.865814971611712 4.134185028388301 7.0
    vertex 11.865814971611712 4.134185028388301 0.9999999999999999
  endloop
endfacet
facet normal 0.7933533402912344 -0.6087614290087218 0.0
  outer loop
    vertex 11.865814971611712 4.134185028388301 7.0
    vertex 12.734637060230266 5.2664560187608895 0.9999999999999999
    vertex 12.734637060230266 5.2664560187608895 7.0
  endloop
endfacet
facet normal -0.9238795325112875 -0.3826834323650878 -0.0
  outer loop
    vertex 2.7191985424481975 6.5850135140599155 7.0
    vertex 3.2653629397697492 5.2664560187608895 0.9999999999999999
    vertex 3.2653629397697492 5.2664560187608895 7.0
  endloop
endfacet
facet normal -0.9238795325112875 -0.3826834323650878 -0.0
  outer loop
    vertex 3.2653629397697492 5.2664560187608895 0.9999999999999999
    vertex 2.7191985424481975 6.5850135140599155 7.0
    vertex 2.7191985424481975 6.5850135140599155 0.9999999999999999
  endloop
endfacet
facet normal 0.13052619222005815 -0.9914448613738095 0.0
  outer loop
    vertex 9.414986485940112 2.7191985424482086 7.0
    vertex 8.000000000000005 2.5329120375217715 0.9999999999999999
    vertex 9.414986485940112 2.7191985424482086 0.9999999999999999
  endloop
endfacet
facet normal 0.13052619222005815 -0.9914448613738095 0.0
  outer loop
    vertex 8.000000000000005 2.5329120375217715 0.9999999999999999
    vertex 9.414986485940112 2.7191985424482086 7.0
    vertex 8.000000000000005 2.5329120375217715 7.0
  endloop
endfacet
facet normal -0.9914448613738104 -0.13052619222005163 -0.0
  outer loop
    vertex 2.5329120375217715 8.000000000000007 7.0
    vertex 2.7191985424481975 6.5850135140599155 0.9999999999999999
    vertex 2.7191985424481975 6.5850135140599155 7.0
  endloop
endfacet
facet normal -0.9914448613738104 -0.13052619222005163 -0.0
  outer loop
    vertex 2.7191985424481975 6.5850135140599155 0.9999999999999999
    vertex 2.5329120375217715 8.000000000000007 7.0
    vertex 2.5329120375217715 8.000000000000007 0.9999999999999999
  endloop
endfacet
facet normal 0.9238795325112861 0.3826834323650918 0.0
  outer loop
    vertex 12.734637060230266 10.733543981239126 0.9999999999999999
    vertex 13.280801457551815 9.414986485940123 7.0
    vertex 13.280801457551815 9.414986485940123 0.9999999999999999
  endloop
endfacet
facet normal 0.9238795325112861 0.3826834323650918 0.0
  outer loop
    vertex 13.280801457551815 9.414986485940123 7.0
    vertex 12.734637060230266 10.733543981239126 0.9999999999999999
    vertex 12.734637060230266 10.733543981239126 7.0
  endloop
endfacet
facet normal 0.13052619222005865 0.9914448613738096 0.0
  outer loop
    vertex 8.00000000000001 13.467087962478244 7.0
    vertex 9.414986485940112 13.280801457551807 0.9999999999999999
    vertex 8.00000000000001 13.467087962478244 0.9999999999999999
  endloop
endfacet
facet normal 0.13052619222005865 0.9914448613738096 0.0
  outer loop
    vertex 9.414986485940112 13.280801457551807 0.9999999999999999
    vertex 8.00000000000001 13.467087962478244 7.0
    vertex 9.414986485940112 13.280801457551807 7.0
  endloop
endfacet
endsolid Untitled-5a5ef77a
