solid Untitled-5a5ef79e
facet normal -0.0 -1.0 -0.0
  outer loop
    vertex 14.000000000000009 0.0 0.9999999999999999
    vertex 0.0 0.0 0.0
    vertex 14.000000000000009 0.0 0.0
  endloop
endfacet
facet normal -0.0 -1.0 -0.0
  outer loop
    vertex 0.0 0.0 0.0
    vertex 14.000000000000009 0.0 0.9999999999999999
    vertex 0.0 0.0 0.9999999999999999
  endloop
endfacet
facet normal 0.0 0.0 -1.0
  outer loop
    vertex 14.000000000000009 8.000000000000007 0.0
    vertex 0.0 0.0 0.0
    vertex 0.0 8.000000000000007 0.0
  endloop
endfacet
facet normal 0.0 0.0 -1.0
  outer loop
    vertex 0.0 0.0 0.0
    vertex 14.000000000000009 8.000000000000007 0.0
    vertex 14.000000000000009 0.0 0.0
  endloop
endfacet
facet normal 1.0 0.0 0.0
  outer loop
    vertex 14.000000000000009 8.000000000000007 0.0
    vertex 14.000000000000009 0.0 0.9999999999999999
    vertex 14.000000000000009 0.0 0.0
  endloop
endfacet
facet normal 1.0 0.0 0.0
  outer loop
    vertex 14.000000000000009 0.0 0.9999999999999999
    vertex 14.000000000000009 8.000000000000007 0.0
    vertex 14.000000000000009 8.000000000000007 0.9999999999999999
  endloop
endfacet
facet normal -1.0 0.0 0.0
  outer loop
    vertex 0.0 8.000000000000007 0.9999999999999999
    vertex 0.0 0.0 0.0
    vertex 0.0 0.0 0.9999999999999999
  endloop
endfacet
facet normal -1.0 0.0 0.0
  outer loop
    vertex 0.0 0.0 0.0
    vertex 0.0 8.000000000000007 0.9999999999999999
    vertex 0.0 8.000000000000007 0.0
  endloop
endfacet
facet normal 0.0 1.0 0.0
  outer loop
    vertex 0.0 8.000000000000007 0.9999999999999999
    vertex 14.000000000000009 8.000000000000007 0.0
    vertex 0.0 8.000000000000007 0.0
  endloop
endfacet
facet normal 0.0 1.0 0.0
  outer loop
    vertex 14.000000000000009 8.000000000000007 0.0
    vertex 0.0 8.000000000000007 0.9999999999999999
    vertex 14.000000000000009 8.000000000000007 0.9999999999999999
  endloop
endfacet
facet normal 0.0 0.0 1.0
  outer loop
    vertex 0.0 0.0 0.9999999999999999
    vertex 1.9999999999999962 2.4999999999999956 0.9999999999999999
    vertex 0.0 8.000000000000007 0.9999999999999999
  endloop
endfacet
facet normal 0.0 0.0 1.0
  outer loop
    vertex 1.9999999999999962 2.4999999999999956 0.9999999999999999
    vertex 0.0 0.0 0.9999999999999999
    vertex 14.000000000000009 0.0 0.9999999999999999
  endloop
endfacet
facet normal 0.0 0.0 1.0
  outer loop
    vertex 1.9999999999999962 2.4999999999999956 0.9999999999999999
    vertex 14.000000000000009 0.0 0.9999999999999999
    vertex 12.000000000000012 2.4999999999999956 0.9999999999999999
  endloop
endfacet
facet normal 0.0 0.0 1.0
  outer loop
    vertex 12.000000000000012 2.4999999999999956 0.9999999999999999
    vertex 14.000000000000009 0.0 0.9999999999999999
    vertex 12.000000000000012 5.500000000000012 0.9999999999999999
  endloop
endfacet
facet normal 0.0 0.0 1.0
  outer loop
    vertex 0.0 8.000000000000007 0.9999999999999999
    vertex 1.9999999999999962 5.500000000000012 0.9999999999999999
    vertex 14.000000000000009 8.000000000000007 0.9999999999999999
  endloop
endfacet
facet normal 0.0 0.0 1.0
  outer loop
    vertex 1.9999999999999962 5.500000000000012 0.9999999999999999
    vertex 0.0 8.000000000000007 0.9999999999999999
    vertex 1.9999999999999962 2.4999999999999956 0.9999999999999999
  endloop
endfacet
facet normal 0.0 0.0 1.0
  outer loop
    vertex 14.000000000000009 8.000000000000007 0.9999999999999999
    vertex 1.9999999999999962 5.500000000000012 0.9999999999999999
    vertex 12.000000000000012 5.500000000000012 0.9999999999999999
  endloop
endfacet
facet normal 0.0 0.0 1.0
  outer loop
    vertex 14.000000000000009 8.000000000000007 0.9999999999999999
    vertex 12.000000000000012 5.500000000000012 0.9999999999999999
    vertex 14.000000000000009 0.0 0.9999999999999999
  endloop
endfacet
facet normal 0.0 0.0 1.0
  outer loop
    vertex 12.000000000000012 2.4999999999999956 7.0
    vertex 1.9999999999999962 5.500000000000012 7.0
    vertex 1.9999999999999962 2.4999999999999956 7.0
  endloop
endfacet
facet normal 0.0 0.0 1.0
  outer loop
    vertex 1.9999999999999962 5.500000000000012 7.0
    vertex 12.000000000000012 2.4999999999999956 7.0
    vertex 12.000000000000012 5.500000000000012 7.0
  endloop
endfacet
facet normal 0.0 1.0 0.0
  outer loop
    vertex 1.9999999999999962 5.500000000000012 7.0
    vertex 12.000000000000012 5.500000000000012 0.9999999999999999
    vertex 1.9999999999999962 5.500000000000012 0.9999999999999999
  endloop
endfacet
facet normal 0.0 1.0 0.0
  outer loop
    vertex 12.000000000000012 5.500000000000012 0.9999999999999999
    vertex 1.9999999999999962 5.500000000000012 7.0
    vertex 12.000000000000012 5.500000000000012 7.0
  endloop
endfacet
facet normal 1.0 0.0 0.0
  outer loop
    vertex 12.000000000000012 5.500000000000012 0.9999999999999999
    vertex 12.000000000000012 2.4999999999999956 7.0
    vertex 12.000000000000012 2.4999999999999956 0.9999999999999999
  endloop
endfacet
facet normal 1.0 0.0 0.0
  outer loop
    vertex 12.000000000000012 2.4999999999999956 7.0
    vertex 12.000000000000012 5.500000000000012 0.9999999999999999
    vertex 12.000000000000012 5.500000000000012 7.0
  endloop
endfacet
facet normal -1.0 -0.0 -0.0
  outer loop
    vertex 1.9999999999999962 5.500000000000012 7.0
    vertex 1.9999999999999962 2.4999999999999956 0.9999999999999999
    vertex 1.9999999999999962 2.4999999999999956 7.0
  endloop
endfacet
facet normal -1.0 -0.0 -0.0
  outer loop
    vertex 1.9999999999999962 2.4999999999999956 0.9999999999999999
    vertex 1.9999999999999962 5.500000000000012 7.0
    vertex 1.9999999999999962 5.500000000000012 0.9999999999999999
  endloop
endfacet
facet normal 0.0 -1.0 0.0
  outer loop
    vertex 12.000000000000012 2.4999999999999956 7.0
    vertex 1.9999999999999962 2.4999999999999956 0.9999999999999999
    vertex 12.000000000000012 2.4999999999999956 0.9999999999999999
  endloop
endfacet
facet normal 0.0 -1.0 0.0
  outer loop
    vertex 1.9999999999999962 2.4999999999999956 0.9999999999999999
    vertex 12.000000000000012 2.4999999999999956 7.0
    vertex 1.9999999999999962 2.4999999999999956 7.0
  endloop
endfacet
endsolid Untitled-5a5ef79e
