solid Untitled-5a5ef759
facet normal -1.0 0.0 0.0
  outer loop
    vertex 1.3999999999999975 18.599999999999987 6.999999999999998
    vertex 1.3999999999999975 9.400000000000006 0.9999999999999926
    vertex 1.3999999999999975 9.400000000000006 7.000000000000021
  endloop
endfacet
facet normal -1.0 0.0 0.0
  outer loop
    vertex 1.3999999999999975 9.400000000000006 0.9999999999999926
    vertex 1.3999999999999975 18.599999999999987 6.999999999999998
    vertex 1.3999999999999975 18.599999999999987 0.9999999999999926
  endloop
endfacet
facet normal 0.0 -1.0 0.0
  outer loop
    vertex 9.400000000000016 9.400000000000006 7.000000000000021
    vertex 1.3999999999999975 9.400000000000006 0.9999999999999926
    vertex 9.400000000000016 9.400000000000006 0.9999999999999926
  endloop
endfacet
facet normal 0.0 -1.0 0.0
  outer loop
    vertex 1.3999999999999975 9.400000000000006 0.9999999999999926
    vertex 9.400000000000016 9.400000000000006 7.000000000000021
    vertex 1.3999999999999975 9.400000000000006 7.000000000000021
  endloop
endfacet
facet normal -4.026127042305152e-16 1.9291858744378803e-16 1.0
  outer loop
    vertex 26.60000000000002 9.400000000000006 7.000000000000021
    vertex 18.6 18.599999999999987 7.000000000000021
    vertex 18.6 9.400000000000006 7.000000000000021
  endloop
endfacet
facet normal -4.026127042305152e-16 1.9291858744378803e-16 1.0
  outer loop
    vertex 18.6 18.599999999999987 7.000000000000021
    vertex 26.60000000000002 9.400000000000006 7.000000000000021
    vertex 26.60000000000002 18.599999999999987 7.000000000000021
  endloop
endfacet
facet normal -4.026127042305152e-16 1.9291858744378803e-16 1.0
  outer loop
    vertex 18.6 1.3999999999999975 7.000000000000021
    vertex 9.400000000000016 9.400000000000006 7.000000000000021
    vertex 9.400000000000016 1.3999999999999975 7.000000000000021
  endloop
endfacet
facet normal -4.026127042305152e-16 1.9291858744378803e-16 1.0
  outer loop
    vertex 9.400000000000016 9.400000000000006 7.000000000000021
    vertex 18.6 1.3999999999999975 7.000000000000021
    vertex 9.400000000000016 18.599999999999987 7.000000000000021
  endloop
endfacet
facet normal -4.026127042305152e-16 1.9291858744378803e-16 1.0
  outer loop
    vertex 9.400000000000016 18.599999999999987 7.000000000000021
    vertex 18.6 1.3999999999999975 7.000000000000021
    vertex 9.400000000000016 26.352296999999993 7.000000000000021
  endloop
endfacet
facet normal -4.026127042305152e-16 1.9291858744378803e-16 1.0
  outer loop
    vertex 9.400000000000016 26.352296999999993 7.000000000000021
    vertex 18.6 1.3999999999999975 7.000000000000021
    vertex 18.6 26.352296999999993 7.000000000000021
  endloop
endfacet
facet normal -4.026127042305152e-16 1.9291858744378803e-16 1.0
  outer loop
    vertex 18.6 26.352296999999993 7.000000000000021
    vertex 18.6 1.3999999999999975 7.000000000000021
    vertex 18.6 9.400000000000006 7.000000000000021
  endloop
endfacet
facet normal -4.026127042305152e-16 1.9291858744378803e-16 1.0
  outer loop
    vertex 18.6 26.352296999999993 7.000000000000021
    vertex 18.6 9.400000000000006 7.000000000000021
    vertex 18.6 18.599999999999987 7.000000000000021
  endloop
endfacet
facet normal -4.026127042305152e-16 1.9291858744378803e-16 1.0
  outer loop
    vertex 9.400000000000016 9.400000000000006 7.000000000000021
    vertex 1.3999999999999975 18.599999999999987 6.999999999999998
    vertex 1.3999999999999975 9.400000000000006 7.000000000000021
  endloop
endfacet
facet normal -4.026127042305152e-16 1.9291858744378803e-16 1.0
  outer loop
    vertex 1.3999999999999975 18.599999999999987 6.999999999999998
    vertex 9.400000000000016 9.400000000000006 7.000000000000021
    vertex 9.400000000000016 18.599999999999987 7.000000000000021
  endloop
endfacet
facet normal -1.0 0.0 0.0
  outer loop
    vertex 9.400000000000016 26.352296999999993 7.000000000000021
    vertex 9.400000000000016 18.599999999999987 0.9999999999999926
    vertex 9.400000000000016 18.599999999999987 7.000000000000021
  endloop
endfacet
facet normal -1.0 0.0 0.0
  outer loop
    vertex 9.400000000000016 18.599999999999987 0.9999999999999926
    vertex 9.400000000000016 26.352296999999993 7.000000000000021
    vertex 9.400000000000016 26.352296999999993 0.9999999999999926
  endloop
endfacet
facet normal 0.0 1.0 0.0
  outer loop
    vertex 1.3999999999999975 18.599999999999987 6.999999999999998
    vertex 9.400000000000016 18.599999999999987 0.9999999999999926
    vertex 1.3999999999999975 18.599999999999987 0.9999999999999926
  endloop
endfacet
facet normal 0.0 1.0 0.0
  outer loop
    vertex 9.400000000000016 18.599999999999987 0.9999999999999926
    vertex 1.3999999999999975 18.599999999999987 6.999999999999998
    vertex 9.400000000000016 18.599999999999987 7.000000000000021
  endloop
endfacet
facet normal 0.0 1.0 0.0
  outer loop
    vertex 9.400000000000016 26.352296999999993 7.000000000000021
    vertex 18.6 26.352296999999993 0.9999999999999926
    vertex 9.400000000000016 26.352296999999993 0.9999999999999926
  endloop
endfacet
facet normal 0.0 1.0 0.0
  outer loop
    vertex 18.6 26.352296999999993 0.9999999999999926
    vertex 9.400000000000016 26.352296999999993 7.000000000000021
    vertex 18.6 26.352296999999993 7.000000000000021
  endloop
endfacet
facet normal 1.0 0.0 0.0
  outer loop
    vertex 26.60000000000002 18.599999999999987 0.9999999999999926
    vertex 26.60000000000002 9.400000000000006 7.000000000000021
    vertex 26.60000000000002 9.400000000000006 0.9999999999999926
  endloop
endfacet
facet normal 1.0 0.0 0.0
  outer loop
    vertex 26.60000000000002 9.400000000000006 7.000000000000021
    vertex 26.60000000000002 18.599999999999987 0.9999999999999926
    vertex 26.60000000000002 18.599999999999987 7.000000000000021
  endloop
endfacet
facet normal 0.0 -1.0 0.0
  outer loop
    vertex 26.60000000000002 9.400000000000006 7.000000000000021
    vertex 18.6 9.400000000000006 0.9999999999999926
    vertex 26.60000000000002 9.400000000000006 0.9999999999999926
  endloop
endfacet
facet normal 0.0 -1.0 0.0
  outer loop
    vertex 18.6 9.400000000000006 0.9999999999999926
    vertex 26.60000000000002 9.400000000000006 7.000000000000021
    vertex 18.6 9.400000000000006 7.000000000000021
  endloop
endfacet
facet normal 1.0 0.0 0.0
  outer loop
    vertex 18.6 26.352296999999993 0.9999999999999926
    vertex 18.6 18.599999999999987 7.000000000000021
    vertex 18.6 18.599999999999987 0.9999999999999926
  endloop
endfacet
facet normal 1.0 0.0 0.0
  outer loop
    vertex 18.6 18.599999999999987 7.000000000000021
    vertex 18.6 26.352296999999993 0.9999999999999926
    vertex 18.6 26.352296999999993 7.000000000000021
  endloop
endfacet
facet normal 0.0 -1.0 0.0
  outer loop
    vertex 18.6 1.3999999999999975 7.000000000000021
    vertex 9.400000000000016 1.3999999999999975 0.9999999999999926
    vertex 18.6 1.3999999999999975 0.9999999999999926
  endloop
endfacet
facet normal 0.0 -1.0 0.0
  outer loop
    vertex 9.400000000000016 1.3999999999999975 0.9999999999999926
    vertex 18.6 1.3999999999999975 7.000000000000021
    vertex 9.400000000000016 1.3999999999999975 7.000000000000021
  endloop
endfacet
facet normal -1.0 0.0 0.0
  outer loop
    vertex 9.400000000000016 9.400000000000006 7.000000000000021
    vertex 9.400000000000016 1.3999999999999975 0.9999999999999926
    vertex 9.400000000000016 1.3999999999999975 7.000000000000021
  endloop
endfacet
facet normal -1.0 0.0 0.0
  outer loop
    vertex 9.400000000000016 1.3999999999999975 0.9999999999999926
    vertex 9.400000000000016 9.400000000000006 7.000000000000021
    vertex 9.400000000000016 9.400000000000006 0.9999999999999926
  endloop
endfacet
facet normal 1.0 0.0 0.0
  outer loop
    vertex 18.6 9.400000000000006 0.9999999999999926
    vertex 18.6 1.3999999999999975 7.000000000000021
    vertex 18.6 1.3999999999999975 0.9999999999999926
  endloop
endfacet
facet normal 1.0 0.0 0.0
  outer loop
    vertex 18.6 1.3999999999999975 7.000000000000021
    vertex 18.6 9.400000000000006 0.9999999999999926
    vertex 18.6 9.400000000000006 7.000000000000021
  endloop
endfacet
facet normal 0.0 1.0 0.0
  outer loop
    vertex 18.6 18.599999999999987 7.000000000000021
    vertex 26.60000000000002 18.599999999999987 0.9999999999999926
    vertex 18.6 18.599999999999987 0.9999999999999926
  endloop
endfacet
facet normal 0.0 1.0 0.0
  outer loop
    vertex 26.60000000000002 18.599999999999987 0.9999999999999926
    vertex 18.6 18.599999999999987 7.000000000000021
    vertex 26.60000000000002 18.599999999999987 7.000000000000021
  endloop
endfacet
facet normal 0.0 1.0 0.0
  outer loop
    vertex 19.999999999999996 19.999999999999986 0.9999999999999926
    vertex 27.999999999999993 19.999999999999986 0.0
    vertex 19.999999999999996 19.999999999999986 0.0
  endloop
endfacet
facet normal 0.0 1.0 0.0
  outer loop
    vertex 27.999999999999993 19.999999999999986 0.0
    vertex 19.999999999999996 19.999999999999986 0.9999999999999926
    vertex 27.999999999999993 19.999999999999986 0.9999999999999926
  endloop
endfacet
facet normal -1.0 0.0 0.0
  outer loop
    vertex 8.00000000000002 8.000000000000007 0.9999999999999926
    vertex 8.00000000000002 0.0 0.0
    vertex 8.00000000000002 0.0 0.9999999999999926
  endloop
endfacet
facet normal -1.0 0.0 0.0
  outer loop
    vertex 8.00000000000002 0.0 0.0
    vertex 8.00000000000002 8.000000000000007 0.9999999999999926
    vertex 8.00000000000002 8.000000000000007 0.0
  endloop
endfacet
facet normal 0.0 1.0 0.0
  outer loop
    vertex 0.0 19.999999999999986 0.9999999999999926
    vertex 8.00000000000002 19.999999999999986 0.0
    vertex 0.0 19.999999999999986 0.0
  endloop
endfacet
facet normal 0.0 1.0 0.0
  outer loop
    vertex 8.00000000000002 19.999999999999986 0.0
    vertex 0.0 19.999999999999986 0.9999999999999926
    vertex 8.00000000000002 19.999999999999986 0.9999999999999926
  endloop
endfacet
facet normal -1.0 0.0 0.0
  outer loop
    vertex 8.00000000000002 27.999999999999993 0.9999999999999926
    vertex 8.00000000000002 19.999999999999986 0.0
    vertex 8.00000000000002 19.999999999999986 0.9999999999999926
  endloop
endfacet
facet normal -1.0 0.0 0.0
  outer loop
    vertex 8.00000000000002 19.999999999999986 0.0
    vertex 8.00000000000002 27.999999999999993 0.9999999999999926
    vertex 8.00000000000002 27.999999999999993 0.0
  endloop
endfacet
facet normal 1.0 0.0 0.0
  outer loop
    vertex 19.999999999999996 8.000000000000007 0.0
    vertex 19.999999999999996 0.0 0.9999999999999926
    vertex 19.999999999999996 0.0 0.0
  endloop
endfacet
facet normal 1.0 0.0 0.0
  outer loop
    vertex 19.999999999999996 0.0 0.9999999999999926
    vertex 19.999999999999996 8.000000000000007 0.0
    vertex 19.999999999999996 8.000000000000007 0.9999999999999926
  endloop
endfacet
facet normal 0.0 -1.0 0.0
  outer loop
    vertex 19.999999999999996 0.0 0.9999999999999926
    vertex 8.00000000000002 0.0 0.0
    vertex 19.999999999999996 0.0 0.0
  endloop
endfacet
facet normal 0.0 -1.0 0.0
  outer loop
    vertex 8.00000000000002 0.0 0.0
    vertex 19.999999999999996 0.0 0.9999999999999926
    vertex 8.00000000000002 0.0 0.9999999999999926
  endloop
endfacet
facet normal 0.0 -1.0 0.0
  outer loop
    vertex 8.00000000000002 8.000000000000007 0.9999999999999926
    vertex 0.0 8.000000000000007 0.0
    vertex 8.00000000000002 8.000000000000007 0.0
  endloop
endfacet
facet normal 0.0 -1.0 0.0
  outer loop
    vertex 0.0 8.000000000000007 0.0
    vertex 8.00000000000002 8.000000000000007 0.9999999999999926
    vertex 0.0 8.000000000000007 0.9999999999999926
  endloop
endfacet
facet normal 1.0 0.0 0.0
  outer loop
    vertex 19.999999999999996 27.999999999999993 0.0
    vertex 19.999999999999996 19.999999999999986 0.9999999999999926
    vertex 19.999999999999996 19.999999999999986 0.0
  endloop
endfacet
facet normal 1.0 0.0 0.0
  outer loop
    vertex 19.999999999999996 19.999999999999986 0.9999999999999926
    vertex 19.999999999999996 27.999999999999993 0.0
    vertex 19.999999999999996 27.999999999999993 0.9999999999999926
  endloop
endfacet
facet normal 1.0 0.0 0.0
  outer loop
    vertex 27.999999999999993 19.999999999999986 0.0
    vertex 27.999999999999993 8.000000000000007 0.9999999999999926
    vertex 27.999999999999993 8.000000000000007 0.0
  endloop
endfacet
facet normal 1.0 0.0 0.0
  outer loop
    vertex 27.999999999999993 8.000000000000007 0.9999999999999926
    vertex 27.999999999999993 19.999999999999986 0.0
    vertex 27.999999999999993 19.999999999999986 0.9999999999999926
  endloop
endfacet
facet normal 0.0 1.0 0.0
  outer loop
    vertex 8.00000000000002 27.999999999999993 0.9999999999999926
    vertex 19.999999999999996 27.999999999999993 0.0
    vertex 8.00000000000002 27.999999999999993 0.0
  endloop
endfacet
facet normal 0.0 1.0 0.0
  outer loop
    vertex 19.999999999999996 27.999999999999993 0.0
    vertex 8.00000000000002 27.999999999999993 0.9999999999999926
    vertex 19.999999999999996 27.999999999999993 0.9999999999999926
  endloop
endfacet
facet normal 0.0 -1.0 0.0
  outer loop
    vertex 27.999999999999993 8.000000000000007 0.9999999999999926
    vertex 19.999999999999996 8.000000000000007 0.0
    vertex 27.999999999999993 8.000000000000007 0.0
  endloop
endfacet
facet normal 0.0 -1.0 0.0
  outer loop
    vertex 19.999999999999996 8.000000000000007 0.0
    vertex 27.999999999999993 8.000000000000007 0.9999999999999926
    vertex 19.999999999999996 8.000000000000007 0.9999999999999926
  endloop
endfacet
facet normal -1.0 0.0 0.0
  outer loop
    vertex 0.0 19.999999999999986 0.9999999999999926
    vertex 0.0 8.000000000000007 0.0
    vertex 0.0 8.000000000000007 0.9999999999999926
  endloop
endfacet
facet normal -1.0 0.0 0.0
  outer loop
    vertex 0.0 8.000000000000007 0.0
    vertex 0.0 19.999999999999986 0.9999999999999926
    vertex 0.0 19.999999999999986 0.0
  endloop
endfacet
facet normal 0.0 0.0 1.0
  outer loop
    vertex 8.00000000000002 0.0 0.9999999999999926
    vertex 9.400000000000016 1.3999999999999975 0.9999999999999926
    vertex 8.00000000000002 8.000000000000007 0.9999999999999926
  endloop
endfacet
facet normal 0.0 0.0 1.0
  outer loop
    vertex 9.400000000000016 1.3999999999999975 0.9999999999999926
    vertex 8.00000000000002 0.0 0.9999999999999926
    vertex 19.999999999999996 0.0 0.9999999999999926
  endloop
endfacet
facet normal 0.0 0.0 1.0
  outer loop
    vertex 9.400000000000016 1.3999999999999975 0.9999999999999926
    vertex 19.999999999999996 0.0 0.9999999999999926
    vertex 18.6 1.3999999999999975 0.9999999999999926
  endloop
endfacet
facet normal 0.0 0.0 1.0
  outer loop
    vertex 18.6 1.3999999999999975 0.9999999999999926
    vertex 19.999999999999996 0.0 0.9999999999999926
    vertex 18.6 9.400000000000006 0.9999999999999926
  endloop
endfacet
facet normal 0.0 0.0 1.0
  outer loop
    vertex 18.6 9.400000000000006 0.9999999999999926
    vertex 19.999999999999996 0.0 0.9999999999999926
    vertex 19.999999999999996 8.000000000000007 0.9999999999999926
  endloop
endfacet
facet normal 0.0 0.0 1.0
  outer loop
    vertex 18.6 9.400000000000006 0.9999999999999926
    vertex 19.999999999999996 8.000000000000007 0.9999999999999926
    vertex 26.60000000000002 9.400000000000006 0.9999999999999926
  endloop
endfacet
facet normal 0.0 0.0 1.0
  outer loop
    vertex 26.60000000000002 9.400000000000006 0.9999999999999926
    vertex 19.999999999999996 8.000000000000007 0.9999999999999926
    vertex 27.999999999999993 8.000000000000007 0.9999999999999926
  endloop
endfacet
facet normal 0.0 0.0 1.0
  outer loop
    vertex 26.60000000000002 9.400000000000006 0.9999999999999926
    vertex 27.999999999999993 8.000000000000007 0.9999999999999926
    vertex 26.60000000000002 18.599999999999987 0.9999999999999926
  endloop
endfacet
facet normal 0.0 0.0 1.0
  outer loop
    vertex 18.6 18.599999999999987 0.9999999999999926
    vertex 19.999999999999996 19.999999999999986 0.9999999999999926
    vertex 18.6 26.352296999999993 0.9999999999999926
  endloop
endfacet
facet normal 0.0 0.0 1.0
  outer loop
    vertex 19.999999999999996 19.999999999999986 0.9999999999999926
    vertex 18.6 18.599999999999987 0.9999999999999926
    vertex 26.60000000000002 18.599999999999987 0.9999999999999926
  endloop
endfacet
facet normal 0.0 0.0 1.0
  outer loop
    vertex 19.999999999999996 19.999999999999986 0.9999999999999926
    vertex 26.60000000000002 18.599999999999987 0.9999999999999926
    vertex 27.999999999999993 19.999999999999986 0.9999999999999926
  endloop
endfacet
facet normal 0.0 0.0 1.0
  outer loop
    vertex 27.999999999999993 19.999999999999986 0.9999999999999926
    vertex 26.60000000000002 18.599999999999987 0.9999999999999926
    vertex 27.999999999999993 8.000000000000007 0.9999999999999926
  endloop
endfacet
facet normal 0.0 0.0 1.0
  outer loop
    vertex 0.0 19.999999999999986 0.9999999999999926
    vertex 1.3999999999999975 18.599999999999987 0.9999999999999926
    vertex 8.00000000000002 19.999999999999986 0.9999999999999926
  endloop
endfacet
facet normal 0.0 0.0 1.0
  outer loop
    vertex 1.3999999999999975 18.599999999999987 0.9999999999999926
    vertex 0.0 19.999999999999986 0.9999999999999926
    vertex 1.3999999999999975 9.400000000000006 0.9999999999999926
  endloop
endfacet
facet normal 0.0 0.0 1.0
  outer loop
    vertex 8.00000000000002 19.999999999999986 0.9999999999999926
    vertex 1.3999999999999975 18.599999999999987 0.9999999999999926
    vertex 9.400000000000016 18.599999999999987 0.9999999999999926
  endloop
endfacet
facet normal 0.0 0.0 1.0
  outer loop
    vertex 8.00000000000002 19.999999999999986 0.9999999999999926
    vertex 9.400000000000016 18.599999999999987 0.9999999999999926
    vertex 8.00000000000002 27.999999999999993 0.9999999999999926
  endloop
endfacet
facet normal 0.0 0.0 1.0
  outer loop
    vertex 8.00000000000002 27.999999999999993 0.9999999999999926
    vertex 9.400000000000016 18.599999999999987 0.9999999999999926
    vertex 9.400000000000016 26.352296999999993 0.9999999999999926
  endloop
endfacet
facet normal 0.0 0.0 1.0
  outer loop
    vertex 8.00000000000002 27.999999999999993 0.9999999999999926
    vertex 9.400000000000016 26.352296999999993 0.9999999999999926
    vertex 19.999999999999996 27.999999999999993 0.9999999999999926
  endloop
endfacet
facet normal 0.0 0.0 1.0
  outer loop
    vertex 19.999999999999996 27.999999999999993 0.9999999999999926
    vertex 9.400000000000016 26.352296999999993 0.9999999999999926
    vertex 18.6 26.352296999999993 0.9999999999999926
  endloop
endfacet
facet normal 0.0 0.0 1.0
  outer loop
    vertex 19.999999999999996 27.999999999999993 0.9999999999999926
    vertex 18.6 26.352296999999993 0.9999999999999926
    vertex 19.999999999999996 19.999999999999986 0.9999999999999926
  endloop
endfacet
facet normal 0.0 0.0 1.0
  outer loop
    vertex 0.0 8.000000000000007 0.9999999999999926
    vertex 1.3999999999999975 9.400000000000006 0.9999999999999926
    vertex 0.0 19.999999999999986 0.9999999999999926
  endloop
endfacet
facet normal 0.0 0.0 1.0
  outer loop
    vertex 1.3999999999999975 9.400000000000006 0.9999999999999926
    vertex 0.0 8.000000000000007 0.9999999999999926
    vertex 8.00000000000002 8.000000000000007 0.9999999999999926
  endloop
endfacet
facet normal 0.0 0.0 1.0
  outer loop
    vertex 1.3999999999999975 9.400000000000006 0.9999999999999926
    vertex 8.00000000000002 8.000000000000007 0.9999999999999926
    vertex 9.400000000000016 9.400000000000006 0.9999999999999926
  endloop
endfacet
facet normal 0.0 0.0 1.0
  outer loop
    vertex 9.400000000000016 9.400000000000006 0.9999999999999926
    vertex 8.00000000000002 8.000000000000007 0.9999999999999926
    vertex 9.400000000000016 1.3999999999999975 0.9999999999999926
  endloop
endfacet
facet normal 0.0 0.0 -1.0
  outer loop
    vertex 27.999999999999993 19.999999999999986 0.0
    vertex 19.999999999999996 8.000000000000007 0.0
    vertex 19.999999999999996 19.999999999999986 0.0
  endloop
endfacet
facet normal 0.0 0.0 -1.0
  outer loop
    vertex 19.999999999999996 8.000000000000007 0.0
    vertex 27.999999999999993 19.999999999999986 0.0
    vertex 27.999999999999993 8.000000000000007 0.0
  endloop
endfacet
facet normal 0.0 0.0 -1.0
  outer loop
    vertex 19.999999999999996 27.999999999999993 0.0
    vertex 8.00000000000002 19.999999999999986 0.0
    vertex 8.00000000000002 27.999999999999993 0.0
  endloop
endfacet
facet normal 0.0 0.0 -1.0
  outer loop
    vertex 8.00000000000002 19.999999999999986 0.0
    vertex 19.999999999999996 27.999999999999993 0.0
    vertex 8.00000000000002 8.000000000000007 0.0
  endloop
endfacet
facet normal 0.0 0.0 -1.0
  outer loop
    vertex 8.00000000000002 8.000000000000007 0.0
    vertex 19.999999999999996 27.999999999999993 0.0
    vertex 8.00000000000002 0.0 0.0
  endloop
endfacet
facet normal 0.0 0.0 -1.0
  outer loop
    vertex 8.00000000000002 0.0 0.0
    vertex 19.999999999999996 27.999999999999993 0.0
    vertex 19.999999999999996 0.0 0.0
  endloop
endfacet
facet normal 0.0 0.0 -1.0
  outer loop
    vertex 19.999999999999996 0.0 0.0
    vertex 19.999999999999996 27.999999999999993 0.0
    vertex 19.999999999999996 19.999999999999986 0.0
  endloop
endfacet
facet normal 0.0 0.0 -1.0
  outer loop
    vertex 19.999999999999996 0.0 0.0
    vertex 19.999999999999996 19.999999999999986 0.0
    vertex 19.999999999999996 8.000000000000007 0.0
  endloop
endfacet
facet normal 0.0 0.0 -1.0
  outer loop
    vertex 8.00000000000002 19.999999999999986 0.0
    vertex 0.0 8.000000000000007 0.0
    vertex 0.0 19.999999999999986 0.0
  endloop
endfacet
facet normal 0.0 0.0 -1.0
  outer loop
    vertex 0.0 8.000000000000007 0.0
    vertex 8.00000000000002 19.999999999999986 0.0
    vertex 8.00000000000002 8.000000000000007 0.0
  endloop
endfacet
endsolid Untitled-5a5ef759
